<svg width="456" height="92" viewBox="0 0 456 92" fill="none" xmlns="http://www.w3.org/2000/svg">
<mask id="mask0_636_3241" style="mask-type:luminance" maskUnits="userSpaceOnUse" x="-1" y="0" width="457" height="92">
<path d="M455.633 0.637497H-0.183594V91.3625H455.633V0.637497Z" fill="white"/>
</mask>
<g mask="url(#mask0_636_3241)">
<path d="M171.795 34.3171H160.252L158.343 39.8704H152.234L162.655 10.7047H169.414L179.835 39.8704H173.704L171.795 34.3171ZM170.223 29.6443L166.023 17.4544L161.824 29.6443H170.2H170.223Z" fill="black"/>
<path d="M184.124 13.0075C183.45 12.3528 183.113 11.5402 183.113 10.5695C183.113 9.59881 183.45 8.78615 184.124 8.13148C184.798 7.47685 185.651 7.1608 186.684 7.1608C187.717 7.1608 188.548 7.49941 189.244 8.13148C189.94 8.76356 190.255 9.59881 190.255 10.5695C190.255 11.5402 189.918 12.3528 189.244 13.0075C188.571 13.6621 187.717 13.9782 186.684 13.9782C185.651 13.9782 184.798 13.6621 184.124 13.0075ZM189.536 16.7548V39.8706H183.72V16.7548H189.536Z" fill="black"/>
<path d="M195.173 22.0148C196.093 20.2088 197.373 18.8093 198.968 17.8386C200.562 16.8679 202.359 16.3713 204.335 16.3713C205.817 16.3713 207.255 16.7099 208.602 17.3419C209.95 17.974 211.027 18.8544 211.836 19.9605V8.98956H217.742V39.8708H211.836V36.4396C211.117 37.5909 210.107 38.4939 208.804 39.1937C207.502 39.8934 205.997 40.2321 204.268 40.2321C202.336 40.2321 200.562 39.7355 198.946 38.7421C197.329 37.7488 196.071 36.3267 195.15 34.4983C194.229 32.6696 193.758 30.5704 193.758 28.2227C193.758 25.875 194.229 23.8207 195.15 22.0148H195.173ZM211.05 24.656C210.489 23.6401 209.747 22.8499 208.804 22.3083C207.861 21.7665 206.85 21.4956 205.773 21.4956C204.694 21.4956 203.706 21.7665 202.786 22.2855C201.865 22.8048 201.124 23.595 200.562 24.6109C200.001 25.6266 199.709 26.823 199.709 28.2227C199.709 29.6222 200.001 30.8411 200.562 31.8796C201.124 32.918 201.887 33.7306 202.808 34.2724C203.729 34.8368 204.717 35.1078 205.773 35.1078C206.828 35.1078 207.861 34.8368 208.804 34.295C209.747 33.7532 210.489 32.9632 211.05 31.9473C211.611 30.9314 211.881 29.7124 211.881 28.2904C211.881 26.8681 211.611 25.6491 211.05 24.6335V24.656Z" fill="black"/>
<path d="M244.623 30.0505H227.826C227.96 31.721 228.544 33.0302 229.577 33.9782C230.61 34.9264 231.868 35.4005 233.35 35.4005C235.506 35.4005 237.034 34.4748 237.953 32.6013H244.22C243.546 34.8361 242.288 36.6646 240.402 38.0869C238.516 39.5089 236.202 40.2312 233.462 40.2312C231.239 40.2312 229.263 39.7346 227.511 38.764C225.759 37.7707 224.39 36.3712 223.402 34.5651C222.413 32.7592 221.919 30.6825 221.919 28.3123C221.919 25.942 222.391 23.82 223.379 22.0141C224.345 20.2081 225.715 18.8085 227.444 17.8379C229.196 16.8672 231.194 16.3706 233.462 16.3706C235.73 16.3706 237.618 16.8446 239.346 17.7927C241.076 18.7408 242.423 20.0727 243.367 21.8109C244.332 23.549 244.804 25.5356 244.804 27.7931C244.804 28.6282 244.737 29.3731 244.646 30.0505H244.623ZM238.762 26.1226C238.739 24.61 238.202 23.4136 237.146 22.5108C236.09 21.6077 234.811 21.1563 233.283 21.1563C231.756 21.1563 230.633 21.5852 229.645 22.4657C228.656 23.3459 228.05 24.5649 227.848 26.1226H238.762Z" fill="black"/>
<path d="M153.537 62.4898C154.458 60.6839 155.715 59.2844 157.31 58.3136C158.904 57.3429 160.678 56.8462 162.655 56.8462C164.361 56.8462 165.866 57.1849 167.146 57.8847C168.426 58.5844 169.459 59.4649 170.245 60.5034V57.2075H176.107V80.3233H170.245V76.9372C169.504 78.0207 168.471 78.9238 167.146 79.6235C165.821 80.3233 164.316 80.6846 162.61 80.6846C160.678 80.6846 158.904 80.1879 157.31 79.1946C155.715 78.2012 154.458 76.7792 153.537 74.9507C152.616 73.1223 152.145 71.0228 152.145 68.6751C152.145 66.3274 152.616 64.2731 153.537 62.4672V62.4898ZM169.414 65.131C168.853 64.1151 168.112 63.3251 167.169 62.7833C166.225 62.2416 165.215 61.9705 164.137 61.9705C163.059 61.9705 162.071 62.2416 161.15 62.7608C160.229 63.28 159.488 64.07 158.927 65.0859C158.365 66.1016 158.073 67.2982 158.073 68.6977C158.073 70.0972 158.365 71.3162 158.927 72.3546C159.488 73.3931 160.229 74.2059 161.172 74.7474C162.093 75.3118 163.081 75.5828 164.137 75.5828C165.192 75.5828 166.225 75.3118 167.169 74.77C168.112 74.2284 168.853 73.4382 169.414 72.4223C169.976 71.4066 170.245 70.1877 170.245 68.7654C170.245 67.3433 169.976 66.1241 169.414 65.1085V65.131ZM169.459 51.4285V55.6047L159.915 51.2255V46.4622L169.459 51.4285Z" fill="black"/>
<path d="M197.463 49.4871V80.3684H191.647V49.4871H197.463Z" fill="black"/>
<path d="M203.078 62.49C203.999 60.6842 205.256 59.2844 206.851 58.3139C208.445 57.3432 210.219 56.8465 212.173 56.8465C213.88 56.8465 215.384 57.1852 216.687 57.8849C217.967 58.5847 219 59.4652 219.786 60.5034V57.2078H225.648V80.3236H219.786V76.9374C219.045 78.021 218.012 78.9238 216.687 79.6238C215.362 80.3236 213.857 80.6846 212.151 80.6846C210.219 80.6846 208.445 80.1882 206.851 79.1948C205.256 78.2015 203.999 76.7795 203.078 74.9508C202.157 73.1223 201.686 71.0231 201.686 68.6754C201.686 66.3277 202.157 64.2734 203.078 62.4675V62.49ZM218.955 65.1311C218.394 64.1154 217.653 63.3252 216.71 62.7834C215.766 62.2416 214.756 61.9708 213.678 61.9708C212.6 61.9708 211.612 62.2416 210.691 62.7608C209.77 63.2801 209.029 64.0703 208.468 65.0859C207.906 66.1018 207.614 67.2982 207.614 68.698C207.614 70.0975 207.906 71.3164 208.468 72.3549C209.029 73.3933 209.793 74.2059 210.714 74.7477C211.634 75.312 212.622 75.5831 213.678 75.5831C214.733 75.5831 215.766 75.312 216.71 74.7703C217.653 74.2285 218.394 73.4385 218.955 72.4226C219.517 71.4067 219.786 70.1877 219.786 68.7657C219.786 67.3434 219.517 66.1244 218.955 65.1085V65.1311Z" fill="black"/>
<path d="M247.027 84.1605C247.027 86.7115 246.399 88.5625 245.141 89.6913C243.883 90.82 242.085 91.3843 239.729 91.3843H237.146V86.4179H238.808C239.683 86.4179 240.313 86.2374 240.671 85.8987C241.032 85.5602 241.211 84.9959 241.211 84.2057V57.2524H247.027V84.1605ZM241.569 53.505C240.897 52.8504 240.559 52.0378 240.559 51.0671C240.559 50.0963 240.897 49.2837 241.569 48.6291C242.243 47.9745 243.12 47.6584 244.176 47.6584C245.229 47.6584 246.039 47.9971 246.713 48.6291C247.385 49.2837 247.701 50.0963 247.701 51.0671C247.701 52.0378 247.364 52.8504 246.713 53.505C246.062 54.1596 245.208 54.4758 244.176 54.4758C243.141 54.4758 242.243 54.1596 241.569 53.505Z" fill="black"/>
<path d="M273.953 70.549H257.156C257.29 72.2195 257.874 73.529 258.907 74.4769C259.939 75.4251 261.197 75.8992 262.679 75.8992C264.835 75.8992 266.363 74.9736 267.284 73.1H273.549C272.877 75.3349 271.618 77.1633 269.732 78.5854C267.844 80.0077 265.532 80.73 262.793 80.73C260.57 80.73 258.593 80.2333 256.842 79.2628C255.09 78.2695 253.718 76.8697 252.732 75.0638C251.744 73.2579 251.249 71.1813 251.249 68.8108C251.249 66.4405 251.721 64.3187 252.709 62.5129C253.674 60.7067 255.044 59.3072 256.774 58.3365C258.525 57.366 260.523 56.8693 262.793 56.8693C265.06 56.8693 266.946 57.3434 268.677 58.2913C270.404 59.2395 271.753 60.5713 272.695 62.3095C273.663 64.0477 274.132 66.0344 274.132 68.2918C274.132 69.1269 274.065 69.8718 273.977 70.549H273.953ZM268.093 66.6213C268.07 65.1088 267.53 63.9123 266.474 63.0093C265.421 62.1065 264.139 61.6549 262.611 61.6549C261.086 61.6549 259.963 62.0839 258.974 62.9642C257.986 63.8447 257.379 65.0636 257.179 66.6213H268.093Z" fill="black"/>
<path d="M300.072 57.2303V80.3461H294.209V77.4341C293.469 78.4274 292.481 79.2174 291.29 79.7818C290.099 80.3461 288.774 80.6395 287.36 80.6395C285.564 80.6395 283.969 80.2559 282.599 79.4882C281.206 78.7207 280.13 77.592 279.344 76.1023C278.557 74.6123 278.153 72.8515 278.153 70.7746V57.2077H283.969V69.9395C283.969 71.7679 284.418 73.1902 285.339 74.1833C286.26 75.1766 287.495 75.6733 289.067 75.6733C290.639 75.6733 291.941 75.1766 292.839 74.1833C293.76 73.1902 294.209 71.7905 294.209 69.9395V57.2077H300.072V57.2303Z" fill="black"/>
<path d="M325.178 59.5096C326.862 61.2478 327.716 63.686 327.716 66.8011V80.368H321.899V67.5911C321.899 65.7627 321.45 64.3406 320.53 63.3473C319.609 62.354 318.374 61.8573 316.802 61.8573C315.229 61.8573 313.927 62.354 313.006 63.3473C312.085 64.3406 311.613 65.7401 311.613 67.5911V80.368H305.797V57.2522H311.613V60.1417C312.399 59.1486 313.388 58.3584 314.578 57.794C315.79 57.2296 317.095 56.9363 318.553 56.9363C321.292 56.9363 323.495 57.8166 325.178 59.5548V59.5096Z" fill="black"/>
<path d="M354.439 70.549H337.62C337.753 72.2195 338.339 73.529 339.372 74.4769C340.381 75.4251 341.662 75.8992 343.144 75.8992C345.3 75.8992 346.827 74.9736 347.748 73.1H354.014C353.339 75.3349 352.081 77.1633 350.195 78.5854C348.309 80.0077 345.995 80.73 343.255 80.73C341.032 80.73 339.058 80.2333 337.304 79.2628C335.553 78.2695 334.183 76.8697 333.195 75.0638C332.206 73.2579 331.713 71.1813 331.713 68.8108C331.713 66.4405 332.206 64.3187 333.174 62.5129C334.139 60.7067 335.509 59.3072 337.237 58.3365C338.99 57.366 340.988 56.8693 343.255 56.8693C345.525 56.8693 347.388 57.3434 349.118 58.2913C350.846 59.2395 352.195 60.5713 353.137 62.3095C354.081 64.0477 354.574 66.0344 354.574 68.2918C354.574 69.1269 354.53 69.8718 354.418 70.549H354.439ZM348.579 66.6213C348.555 65.1088 348.018 63.9123 346.962 63.0093C345.906 62.1065 344.625 61.6549 343.099 61.6549C341.662 61.6549 340.448 62.0839 339.46 62.9642C338.472 63.8447 337.867 65.0636 337.665 66.6213H348.579Z" fill="black"/>
<path d="M362.57 79.7141C361.089 79.0369 359.898 78.1115 359.021 76.9377C358.147 75.7636 357.675 74.4769 357.584 73.0549H363.447C363.558 73.9351 363.984 74.6802 364.749 75.2672C365.512 75.8541 366.456 76.1474 367.6 76.1474C368.747 76.1474 369.577 75.9218 370.205 75.4702C370.835 75.0187 371.126 74.4544 371.126 73.7546C371.126 73.0097 370.745 72.4454 369.982 72.0615C369.217 71.6777 368.005 71.2715 366.342 70.8426C364.637 70.4136 363.221 69.9846 362.121 69.5559C361.021 69.1044 360.077 68.4272 359.291 67.5016C358.505 66.5762 358.1 65.3344 358.1 63.7995C358.1 62.5129 358.461 61.3616 359.203 60.3006C359.942 59.2395 360.975 58.4042 362.347 57.7947C363.717 57.1852 365.333 56.8693 367.175 56.8693C369.914 56.8693 372.093 57.569 373.731 58.946C375.37 60.3231 376.27 62.1741 376.426 64.5218H370.856C370.768 63.5962 370.386 62.8739 369.712 62.3321C369.038 61.7903 368.117 61.5195 366.993 61.5195C365.94 61.5195 365.131 61.7226 364.57 62.1065C364.007 62.4903 363.717 63.0318 363.717 63.7318C363.717 64.5218 364.098 65.1088 364.884 65.5152C365.67 65.9213 366.861 66.3277 368.498 66.7567C370.161 67.1631 371.531 67.6144 372.61 68.0434C373.686 68.4723 374.631 69.1721 375.417 70.1203C376.203 71.0682 376.607 72.2872 376.652 73.8223C376.652 75.1541 376.291 76.3505 375.552 77.4115C374.81 78.4725 373.777 79.2853 372.407 79.8948C371.038 80.5043 369.442 80.7977 367.624 80.7977C365.805 80.7977 364.051 80.4592 362.547 79.7818L362.57 79.7141Z" fill="black"/>
<path d="M385.183 79.7141C383.702 79.0369 382.511 78.1115 381.634 76.9377C380.76 75.7636 380.288 74.4769 380.197 73.0549H386.06C386.172 73.9351 386.6 74.6802 387.362 75.2672C388.125 75.8541 389.069 76.1474 390.214 76.1474C391.36 76.1474 392.19 75.9218 392.818 75.4702C393.449 75.0187 393.739 74.4544 393.739 73.7546C393.739 73.0097 393.358 72.4454 392.595 72.0615C391.832 71.6777 390.618 71.2715 388.958 70.8426C387.251 70.4136 385.835 69.9846 384.735 69.5559C383.635 69.1044 382.69 68.4272 381.904 67.5016C381.118 66.5762 380.716 65.3344 380.716 63.7995C380.716 62.5129 381.074 61.3616 381.816 60.3006C382.555 59.2395 383.59 58.4042 384.96 57.7947C386.33 57.1852 387.946 56.8693 389.788 56.8693C392.528 56.8693 394.707 57.569 396.346 58.946C397.986 60.3231 398.883 62.1741 399.039 64.5218H393.472C393.381 63.5962 393 62.8739 392.325 62.3321C391.651 61.7903 390.73 61.5195 389.609 61.5195C388.553 61.5195 387.744 61.7226 387.183 62.1065C386.621 62.4903 386.33 63.0318 386.33 63.7318C386.33 64.5218 386.711 65.1088 387.497 65.5152C388.283 65.9213 389.474 66.3277 391.114 66.7567C392.774 67.1631 394.144 67.6144 395.223 68.0434C396.3 68.4723 397.244 69.1721 398.03 70.1203C398.816 71.0682 399.221 72.2872 399.265 73.8223C399.265 75.1541 398.904 76.3505 398.165 77.4115C397.423 78.4725 396.39 79.2853 395.021 79.8948C393.651 80.5043 392.055 80.7977 390.237 80.7977C388.418 80.7977 386.667 80.4592 385.162 79.7818L385.183 79.7141Z" fill="black"/>
<path d="M425.293 70.549H408.472C408.607 72.2195 409.191 73.529 410.224 74.4769C411.235 75.4251 412.514 75.8992 413.998 75.8992C416.154 75.8992 417.679 74.9736 418.6 73.1H424.866C424.193 75.3349 422.935 77.1633 421.049 78.5854C419.163 80.0077 416.849 80.73 414.11 80.73C411.886 80.73 409.91 80.2333 408.158 79.2628C406.407 78.2695 405.038 76.8697 404.049 75.0638C403.061 73.2579 402.565 71.1813 402.565 68.8108C402.565 66.4405 403.061 64.3187 404.026 62.5129C404.991 60.7067 406.361 59.3072 408.091 58.3365C409.842 57.366 411.842 56.8693 414.11 56.8693C416.377 56.8693 418.242 57.3434 419.97 58.2913C421.7 59.2395 423.047 60.5713 423.991 62.3095C424.933 64.0477 425.428 66.0344 425.428 68.2918C425.428 69.1269 425.384 69.8718 425.27 70.549H425.293ZM419.433 66.6213C419.41 65.1088 418.87 63.9123 417.814 63.0093C416.759 62.1065 415.479 61.6549 413.952 61.6549C412.514 61.6549 411.303 62.0839 410.314 62.9642C409.326 63.8447 408.719 65.0636 408.517 66.6213H419.433Z" fill="black"/>
<path d="M86.4346 89.8948C66.4027 89.8948 50.0986 73.2803 50.0986 52.8734H64.2692C64.2692 65.4244 74.2178 75.6505 86.4346 75.6505C98.6515 75.6505 108.6 65.4244 108.6 52.8734V18.9672H122.77V52.8734C122.77 73.3028 106.467 89.8948 86.4346 89.8948Z" fill="#86C48F"/>
<path d="M83.6046 45.176L56.8356 20.0963L30.7401 44.4311L21.0835 33.9794L56.8579 0.637497L93.2837 34.7694L83.6046 45.176Z" fill="#86C48F"/>
</g>
</svg>
