<svg width="219" height="401" viewBox="0 0 219 401" fill="none" xmlns="http://www.w3.org/2000/svg">
<g clip-path="url(#clip0_464_1823)">
<path d="M8.80613 226.087C8.80613 226.087 24.0447 302.374 49.833 312.936" stroke="#272343" stroke-width="2" stroke-miterlimit="10"/>
<path d="M45.8412 131.574C45.8412 131.574 51.0496 133.329 49.2967 138.544C47.5438 143.758 45.2984 168.31 14.6639 170.732L3.49805 166.97L6.00413 159.514C6.00413 159.514 7.5924 137.553 30.2162 126.309C30.2162 126.309 44.126 123.739 42.8114 127.65C42.8114 127.65 49.3218 129.844 45.8412 131.574Z" fill="#FFD803"/>
<path opacity="0.3" d="M45.8412 131.574C45.8412 131.574 51.0496 133.329 49.2967 138.544C47.5438 143.758 45.2984 168.31 14.6639 170.732L3.49805 166.97L6.00413 159.514C6.00413 159.514 7.5924 137.553 30.2162 126.309C30.2162 126.309 44.126 123.739 42.8114 127.65C42.8114 127.65 49.3218 129.844 45.8412 131.574Z" fill="#272343"/>
<path d="M63.5042 173.223C63.5042 173.223 66.6854 177.709 62.2044 180.894C57.7235 184.08 41.4847 202.613 15.2867 186.531L8.46664 176.913L14.8732 172.359C14.8732 172.359 29.0583 155.534 53.9604 159.763C53.9604 159.763 66.7194 165.876 63.3587 168.265C63.3587 168.265 67.3353 173.873 63.5042 173.223Z" fill="#FFD803"/>
<path opacity="0.2" d="M63.5042 173.223C63.5042 173.223 66.6854 177.709 62.2044 180.894C57.7235 184.08 41.4847 202.613 15.2867 186.531L8.46664 176.913L14.8732 172.359C14.8732 172.359 29.0583 155.534 53.9604 159.763C53.9604 159.763 66.7194 165.876 63.3587 168.265C63.3587 168.265 67.3353 173.873 63.5042 173.223Z" fill="#272343"/>
<path d="M34.2547 230.779C34.2547 230.779 32.8897 236.108 27.5665 234.742C22.2433 233.375 -2.3769 232.939 -7.04255 202.528L-4.11625 191.102L3.49444 193.056C3.49444 193.056 25.4855 193.026 38.3496 214.789C38.3496 214.789 41.9323 228.49 37.94 227.465C37.94 227.465 36.2338 234.127 34.2547 230.779Z" fill="#FFD803"/>
<path opacity="0.2" d="M34.2547 230.779C34.2547 230.779 32.8897 236.108 27.5665 234.742C22.2433 233.375 -2.3769 232.939 -7.04255 202.528L-4.11625 191.102L3.49444 193.056C3.49444 193.056 25.4855 193.026 38.3496 214.789C38.3496 214.789 41.9323 228.49 37.94 227.465C37.94 227.465 36.2338 234.127 34.2547 230.779Z" fill="#272343"/>
<path d="M-22.2329 109.381C-22.2329 109.381 -18.1671 106.375 -15.165 110.446C-12.163 114.517 5.13647 129.149 -9.18405 153.544L-17.9006 159.988L-22.1927 154.168C-22.1927 154.168 -37.888 141.397 -34.4305 118.398C-34.4305 118.398 -29.0348 106.546 -26.7833 109.599C-26.7833 109.599 -21.701 105.842 -22.2329 109.381Z" fill="#FFD803"/>
<path opacity="0.2" d="M-22.2329 109.381C-22.2329 109.381 -18.1671 106.375 -15.165 110.446C-12.163 114.517 5.13647 129.149 -9.18405 153.544L-17.9006 159.988L-22.1927 154.168C-22.1927 154.168 -37.888 141.397 -34.4305 118.398C-34.4305 118.398 -29.0348 106.546 -26.7833 109.599C-26.7833 109.599 -21.701 105.842 -22.2329 109.381Z" fill="#272343"/>
<path d="M8.70979 247.457C8.70979 247.457 4.93595 251.456 0.941303 247.678C-3.05339 243.899 -24.3778 231.571 -13.7385 202.706L-5.64801 194.132L0.0633278 199.534C0.0633278 199.534 19.3134 210.179 20.0312 235.458C20.0312 235.458 16.5336 249.18 13.5375 246.346C13.5375 246.346 8.82021 251.346 8.70979 247.457Z" fill="#FFD803"/>
<path d="M56.0855 202.74C56.0855 202.74 57.0816 208.151 51.6772 209.149C46.2729 210.146 23.7448 220.1 6.7578 194.46L4.62228 182.86L12.349 181.434C12.349 181.434 32.2956 172.163 53.0971 186.507C53.0971 186.507 62.0938 197.435 58.0406 198.183C58.0406 198.183 59.2857 204.947 56.0855 202.74Z" fill="#FFD803"/>
<path d="M20.6841 117.329C20.6841 117.329 25.7381 117.329 25.7381 122.39C25.7381 127.45 30.9742 149.51 4.98122 160.619H-5.85387V153.384C-5.85387 153.384 -10.9037 133.775 5.52195 117.329C5.52195 117.329 16.8935 111.004 16.8935 114.799C16.8935 114.799 23.2111 114.799 20.6841 117.329Z" fill="#FFD803"/>
<path d="M-15.0101 216.004C-32.2811 216.004 -46.282 201.986 -46.282 184.694C-46.282 167.402 -32.2811 153.384 -15.0101 153.384C2.26084 153.384 16.2617 167.402 16.2617 184.694C16.2617 201.986 2.26084 216.004 -15.0101 216.004Z" fill="#272343"/>
<path d="M212.013 299.673L203.548 239.669L185.286 251.736L197.17 302.595C194.974 305.762 194.027 310.142 194.917 314.677C196.475 322.611 203.055 327.997 209.613 326.706C216.171 325.415 220.225 317.936 218.667 310.001C217.776 305.467 215.243 301.772 212.013 299.673Z" fill="#E0B390"/>
<path d="M44.7114 294.979L53.1765 234.974L71.4385 247.041L59.555 297.901C61.7503 301.068 62.6982 305.448 61.8077 309.982C60.2496 317.917 53.67 323.302 47.1116 322.011C40.5533 320.72 36.4999 313.241 38.058 305.307C38.9485 300.772 41.4821 297.078 44.7114 294.979Z" fill="#E0B390"/>
<path d="M116.217 85.2908L156.072 91.159V101.801C156.072 101.801 190.066 95.8535 194.754 125.195V197.96L211.165 270.726L190.066 275.421L163.691 197.96L153.564 207.564H100.815L88.1638 197.96L71.6737 263.684L47.0575 254.295L59.8149 193.266C59.8149 193.266 54.0907 116.979 81.0512 105.243C108.012 93.5063 108.012 97.0272 108.012 97.0272L116.217 85.2908Z" fill="#CACACA"/>
<path d="M127.848 0.0111958C127.848 0.0111958 158.416 -1.55857 164.277 32.477L170.919 56.2303C170.919 56.2303 192.41 89.9854 156.072 91.159C119.734 92.3327 93.9455 93.5063 93.9455 93.5063V85.2908L88.0845 95.8536C88.0845 95.8536 78.7069 73.5544 79.8792 70.0335C81.0513 66.5126 92.7733 45.387 92.7733 45.387C92.7733 45.387 82.0403 5.10188 127.848 0.0111958Z" fill="#272343"/>
<path d="M178.344 321.193L186.55 342.318L163.106 396.305H129.112V324.417L123.099 396.305L91.6019 401L71.6746 338.797L84.5687 312.977L178.344 321.193Z" fill="#E0B390"/>
<path d="M153.728 207.349L158.417 220.259C158.417 220.259 193.583 254.295 186.549 342.318L71.6742 338.797C71.6742 338.797 55.2635 244.906 93.946 217.912L100.989 207.349H153.728Z" fill="#272343"/>
</g>
<defs>
<clipPath id="clip0_464_1823">
<rect width="313" height="401" fill="white" transform="matrix(-1 0 0 1 219 0)"/>
</clipPath>
</defs>
</svg>
