<svg xmlns="http://www.w3.org/2000/svg" version="1.1" xmlns:xlink="http://www.w3.org/1999/xlink" xmlns:svgjs="http://svgjs.dev/svgjs" width="1024" height="3000" preserveAspectRatio="none" viewBox="0 0 1024 3000"><g mask="url(&quot;#SvgjsMask1049&quot;)" fill="none"><rect width="1024" height="3000" x="0" y="0" fill="rgba(255, 255, 255, 1)"></rect><path d="M-36.68 203.66 a304.68 304.68 0 1 0 609.36 0 a304.68 304.68 0 1 0 -609.36 0z" fill="rgba(167, 214, 219, 0.2)" class="triangle-float2"></path><path d="M665.036,797.865C695.286,797.829,725.757,788.239,742.098,762.782C759.745,735.291,762.891,699.513,746.194,671.434C729.812,643.884,697.019,631.075,665.036,633.189C636.406,635.082,615.248,656.418,600.554,681.062C585.385,706.504,573.344,737.032,587.66,762.964C602.317,789.513,634.71,797.901,665.036,797.865" fill="rgba(167, 214, 219, 0.2)" class="triangle-float1"></path><path d="M507.23 535.19 a205.97 205.97 0 1 0 411.94 0 a205.97 205.97 0 1 0 -411.94 0z" fill="rgba(167, 214, 219, 0.2)" class="triangle-float2"></path><path d="M140.24 1466.83 a325.53 325.53 0 1 0 651.06 0 a325.53 325.53 0 1 0 -651.06 0z" fill="rgba(167, 214, 219, 0.2)" class="triangle-float2"></path><path d="M152.02 1009.19 a281.81 281.81 0 1 0 563.62 0 a281.81 281.81 0 1 0 -563.62 0z" fill="rgba(167, 214, 219, 0.2)" class="triangle-float2"></path><path d="M367.94704076649305 45.64282728060439L224.2184002008634-108.4872695963611 70.08830332389789 35.24137096926853 213.81694388952755 189.37146784623403z" fill="rgba(167, 214, 219, 0.2)" class="triangle-float2"></path><path d="M180.102,2568.843C268.098,2567.164,341.471,2510.362,386.912,2434.988C434.149,2356.635,455.094,2262.265,414.304,2180.37C369.072,2089.557,281.381,2013.818,180.102,2019.776C85.146,2025.362,33.224,2121.051,-10.784,2205.378C-50.399,2281.287,-80.658,2367.345,-40.846,2443.151C1.38,2523.553,89.303,2570.576,180.102,2568.843" fill="rgba(167, 214, 219, 0.2)" class="triangle-float2"></path><path d="M195.51 2786.3 a225.39 225.39 0 1 0 450.78 0 a225.39 225.39 0 1 0 -450.78 0z" fill="rgba(167, 214, 219, 0.2)" class="triangle-float2"></path><path d="M330.781,720.933C361.283,720.974,385.683,696.815,398.731,669.245C410.031,645.37,403.009,618.812,389.99,595.829C376.729,572.419,357.649,550.712,330.781,549.295C301.731,547.763,273.974,563.628,259.67,588.958C245.585,613.901,249.562,643.843,263.15,669.06C277.594,695.867,300.33,720.892,330.781,720.933" fill="rgba(167, 214, 219, 0.2)" class="triangle-float3"></path><path d="M-30.329760346752977 1715.0072119736153L180.7298839196534 1852.0709475777849 317.79361952382294 1641.0113033113785 106.7339752574166 1503.947567707209z" fill="rgba(167, 214, 219, 0.2)" class="triangle-float1"></path><path d="M686.5466403540601 1773.8309747081362L838.3729852728063 1808.882848324733 873.4248588894031 1657.0565034059866 721.5985139706569 1622.00462978939z" fill="rgba(167, 214, 219, 0.2)" class="triangle-float2"></path><path d="M291.12 1464.44 a248.56 248.56 0 1 0 497.12 0 a248.56 248.56 0 1 0 -497.12 0z" fill="rgba(167, 214, 219, 0.2)" class="triangle-float1"></path><path d="M454.3423730984278 2893.637735881336L407.3188251899239 2739.830641074392 253.51173038297978 2786.8541889828957 300.5352782914837 2940.66128378984z" fill="rgba(167, 214, 219, 0.2)" class="triangle-float1"></path><path d="M434.4763019691917 991.3074303412025L671.9451951889392 1003.752647683651 684.3904125313878 766.2837544639036 446.92151931164034 753.8385371214549z" fill="rgba(167, 214, 219, 0.2)" class="triangle-float3"></path><path d="M325.43431924124343 2127.4777278739475L459.95908054628376 2299.661570429105 632.142923101441 2165.1368091240647 497.6181617964008 1992.9529665689072z" fill="rgba(167, 214, 219, 0.2)" class="triangle-float2"></path><path d="M317.45 1271.81 a273.83 273.83 0 1 0 547.66 0 a273.83 273.83 0 1 0 -547.66 0z" fill="rgba(167, 214, 219, 0.2)" class="triangle-float3"></path></g><defs><mask id="SvgjsMask1049"><rect width="1024" height="3000" fill="#ffffff"></rect></mask><style>
                @keyframes float1 {
                    0%{transform: translate(0, 0)}
                    50%{transform: translate(-10px, 0)}
                    100%{transform: translate(0, 0)}
                }

                .triangle-float1 {
                    animation: float1 5s infinite;
                }

                @keyframes float2 {
                    0%{transform: translate(0, 0)}
                    50%{transform: translate(-5px, -5px)}
                    100%{transform: translate(0, 0)}
                }

                .triangle-float2 {
                    animation: float2 4s infinite;
                }

                @keyframes float3 {
                    0%{transform: translate(0, 0)}
                    50%{transform: translate(0, -10px)}
                    100%{transform: translate(0, 0)}
                }

                .triangle-float3 {
                    animation: float3 6s infinite;
                }
            </style></defs></svg>