<svg xmlns="http://www.w3.org/2000/svg" version="1.1" xmlns:xlink="http://www.w3.org/1999/xlink" xmlns:svgjs="http://svgjs.dev/svgjs" width="2000" height="5000" preserveAspectRatio="none" viewBox="0 0 2000 5000"><g mask="url(&quot;#SvgjsMask1040&quot;)" fill="none"><rect width="2000" height="5000" x="0" y="0" fill="rgba(255, 255, 255, 1)"></rect><path d="M719.581,589.648C842.485,592.713,963.691,542.303,1028.359,437.743C1096.342,327.823,1104.88,186.199,1037.203,76.091C972.213,-29.647,843.671,-67.077,719.581,-64.632C600.381,-62.284,482.801,-14.902,422.922,88.193C362.801,191.705,375.42,319.956,436.37,422.982C496.147,524.026,602.215,586.722,719.581,589.648" fill="rgba(167, 214, 219, 0.2)" class="triangle-float1"></path><path d="M1279.45 1724.5 a525.16 525.16 0 1 0 1050.32 0 a525.16 525.16 0 1 0 -1050.32 0z" fill="rgba(167, 214, 219, 0.2)" class="triangle-float2"></path><path d="M246.64 1948.5 a601.29 601.29 0 1 0 1202.58 0 a601.29 601.29 0 1 0 -1202.58 0z" fill="rgba(167, 214, 219, 0.2)" class="triangle-float2"></path><path d="M492.275,1069.589C599.671,1065.939,663.47,961.417,714.409,866.799C761.817,778.739,800.701,675.962,750.873,589.248C700.92,502.315,592.538,480.417,492.275,480.223C391.576,480.028,285.044,502.687,231.936,588.243C176.392,677.722,192.247,790.208,242.35,882.844C295.376,980.885,380.877,1073.375,492.275,1069.589" fill="rgba(167, 214, 219, 0.2)" class="triangle-float1"></path><path d="M971.86 2435.58 a622.77 622.77 0 1 0 1245.54 0 a622.77 622.77 0 1 0 -1245.54 0z" fill="rgba(167, 214, 219, 0.2)" class="triangle-float1"></path><path d="M686.42 2245.76 a361.04 361.04 0 1 0 722.08 0 a361.04 361.04 0 1 0 -722.08 0z" fill="rgba(167, 214, 219, 0.2)" class="triangle-float3"></path><path d="M1606.9641270257675 599.7092770161607L1629.171052784361 282.1354431549312 1311.5972189231315 259.9285173963375 1289.390293164538 577.502351257567z" fill="rgba(167, 214, 219, 0.2)" class="triangle-float1"></path><path d="M373.0428659144037 635.097668218903L207.52205021936942 1089.8623717907199 662.2867537911864 1255.3831874857542 827.8075694862207 800.6184839139373z" fill="rgba(167, 214, 219, 0.2)" class="triangle-float3"></path><path d="M687.5550347414932 2867.052692071437L253.86302308052967 3170.727107897777 557.5374389068696 3604.4191195587405 991.229450567833 3300.7447037324005z" fill="rgba(167, 214, 219, 0.2)" class="triangle-float1"></path><path d="M1363.62 2546.44 a395.34 395.34 0 1 0 790.68 0 a395.34 395.34 0 1 0 -790.68 0z" fill="rgba(167, 214, 219, 0.2)" class="triangle-float2"></path><path d="M1402.64 1836.65 a523.13 523.13 0 1 0 1046.26 0 a523.13 523.13 0 1 0 -1046.26 0z" fill="rgba(167, 214, 219, 0.2)" class="triangle-float2"></path><path d="M51.21 3415.06 a650.65 650.65 0 1 0 1301.3 0 a650.65 650.65 0 1 0 -1301.3 0z" fill="rgba(167, 214, 219, 0.2)" class="triangle-float3"></path><path d="M1969.712,3618.664C2151.876,3611.549,2262.936,3440.938,2354.098,3283.065C2445.275,3125.166,2531.908,2946.521,2452.651,2782.315C2364.716,2600.13,2171.997,2484.506,1969.712,2486.69C1770.816,2488.837,1597.819,2616.892,1504.503,2792.552C1416.79,2957.664,1437.805,3152.362,1529.544,3315.271C1623.26,3481.691,1778.865,3626.118,1969.712,3618.664" fill="rgba(167, 214, 219, 0.2)" class="triangle-float3"></path><path d="M1532.029703934704 5108.358172063949L2099.707187127862 5239.416845751465 2230.765860815379 4671.739362558307 1663.0883776222206 4540.680688870791z" fill="rgba(167, 214, 219, 0.2)" class="triangle-float2"></path><path d="M-525.63 4088.92 a581.47 581.47 0 1 0 1162.94 0 a581.47 581.47 0 1 0 -1162.94 0z" fill="rgba(167, 214, 219, 0.2)" class="triangle-float3"></path><path d="M1216.2961163045645 1263.866100530705L868.0538649725129 1196.1746640619656 800.3624285037737 1544.4169153940172 1148.6046798358252 1612.1083518627565z" fill="rgba(167, 214, 219, 0.2)" class="triangle-float1"></path></g><defs><mask id="SvgjsMask1040"><rect width="2000" height="5000" fill="#ffffff"></rect></mask><style>
                @keyframes float1 {
                    0%{transform: translate(0, 0)}
                    50%{transform: translate(-10px, 0)}
                    100%{transform: translate(0, 0)}
                }

                .triangle-float1 {
                    animation: float1 5s infinite;
                }

                @keyframes float2 {
                    0%{transform: translate(0, 0)}
                    50%{transform: translate(-5px, -5px)}
                    100%{transform: translate(0, 0)}
                }

                .triangle-float2 {
                    animation: float2 4s infinite;
                }

                @keyframes float3 {
                    0%{transform: translate(0, 0)}
                    50%{transform: translate(0, -10px)}
                    100%{transform: translate(0, 0)}
                }

                .triangle-float3 {
                    animation: float3 6s infinite;
                }
            </style></defs></svg>