<svg width="196" height="187" viewBox="0 0 196 187" fill="none" xmlns="http://www.w3.org/2000/svg">
<g clip-path="url(#clip0_438_1076)">
<path d="M46.0921 0C42.0468 0 39.285 2.25551 39.1221 3.78305C38.9512 5.47369 40.0281 7.12057 41.4865 8.25429C52.172 16.62 21.3433 32.8939 25.1462 66.0383C27.8404 89.4765 54.7948 121.451 60.3541 121.451C60.5647 121.451 60.7475 121.404 60.8946 121.308C65.1863 118.524 48.2579 87.8177 44.3834 77.6858C35.7761 54.9438 48.7705 40.3963 53.841 31.9352C60.4972 20.8048 62.1225 10.2671 56.9247 5.1833C52.9589 1.29682 49.1559 0 46.0921 0Z" fill="#E11F21"/>
<path d="M123.748 9.26863C123.387 9.26863 123.021 9.27658 122.644 9.29249C83.3784 11.0587 77.6283 59.2638 77.5329 76.7271C77.5329 78.2268 77.6522 85.8724 75.8997 85.8724C75.546 85.8724 75.1129 85.5542 74.5844 84.8063C72.5418 81.8905 66.7162 73.4055 64.9757 71.1221C64.475 70.4737 63.7955 70.1435 63.1319 70.1435C61.7371 70.1435 60.4217 71.5875 61.0218 74.4954C61.3238 75.9713 65.2221 92.4401 70.8212 99.2146C72.4306 101.18 76.1342 103.952 79.9649 103.952C83.7957 103.952 87.535 101.331 89.7007 92.7822C93.448 79.5594 89.0013 26.9985 133.731 20.9917C137.267 20.5144 138.63 16.3096 136.552 13.8353C135.078 12.085 130.583 9.26465 123.752 9.26465" fill="#FBBA00"/>
<path d="M147.702 56.4078C146.288 55.9622 146.224 55.0831 147.265 53.5198C149.053 50.8505 156.353 34.7477 147.357 26.2945C146.625 25.6063 145.676 24.8943 144.647 24.397C142.993 23.6054 140.911 24.4487 140.943 27.2333C141.154 47.6483 131.128 51.5666 117.096 51.7177H115.427V61.1018L127.853 61.961L128.08 61.9849C141.507 63.0391 149.59 71.9219 149.59 82.1572C149.59 94.4651 139.377 102.417 128.084 102.417C124.336 102.417 120.494 101.641 117.386 99.6961C116.798 99.3261 116.007 98.7573 115.391 98.2879C115.391 99.8791 115.403 118.313 115.403 118.313C119.687 120.354 124.547 121.567 130.834 121.567C148.906 121.567 171.509 108.233 171.509 84.9219C171.509 72.7732 161.444 60.7279 147.698 56.4118" fill="#212E79"/>
<path d="M195.348 181.471C194.911 180.93 194.073 180.326 192.821 179.665L192.543 179.51C191.887 179.168 191.442 178.882 191.22 178.651C190.997 178.42 190.882 178.13 190.882 177.784C190.882 177.362 191.005 177.044 191.251 176.829C191.498 176.614 191.867 176.507 192.36 176.507C192.761 176.507 193.123 176.582 193.429 176.733C193.739 176.881 194.029 177.123 194.307 177.461L195.583 176.256L195.452 176.129C195.054 175.727 194.589 175.425 194.061 175.21C193.532 174.999 192.964 174.892 192.36 174.892C191.351 174.892 190.556 175.154 189.968 175.683C189.384 176.212 189.086 176.928 189.086 177.839C189.086 178.213 189.137 178.551 189.241 178.854C189.344 179.156 189.499 179.43 189.709 179.681C189.936 179.948 190.242 180.214 190.627 180.485C191.013 180.755 191.498 181.046 192.086 181.36L192.372 181.507C193.107 181.897 193.592 182.247 193.83 182.553C194.069 182.863 194.184 183.217 194.184 183.615C194.184 184.109 194.029 184.498 193.715 184.785C193.405 185.071 192.984 185.214 192.439 185.214C191.99 185.214 191.577 185.111 191.196 184.904C190.818 184.697 190.397 184.343 189.932 183.846L188.68 185.127L188.803 185.242C189.372 185.811 189.944 186.221 190.516 186.468C191.088 186.714 191.74 186.841 192.471 186.841C193.556 186.841 194.414 186.551 195.05 185.97C195.682 185.389 196 184.59 196 183.576C196 182.712 195.781 182.004 195.348 181.459M180.872 184.852C180.768 184.852 180.689 184.86 180.637 184.88C180.582 184.9 180.522 184.932 180.466 184.984L180.411 184.928C180.454 184.868 180.482 184.809 180.506 184.753C180.526 184.697 180.538 184.622 180.538 184.522V181.98C180.538 181.901 180.526 181.829 180.506 181.766C180.482 181.706 180.45 181.642 180.411 181.583L180.474 181.519C180.534 181.567 180.59 181.598 180.637 181.614C180.685 181.63 180.764 181.642 180.872 181.646H184.758V179.9H180.872C180.772 179.9 180.701 179.908 180.649 179.924C180.598 179.94 180.538 179.975 180.466 180.031L180.403 179.964C180.454 179.88 180.49 179.812 180.51 179.761C180.53 179.705 180.542 179.641 180.542 179.566V177.219C180.542 177.139 180.53 177.068 180.51 177.004C180.486 176.944 180.454 176.877 180.415 176.813L180.47 176.749C180.55 176.801 180.621 176.837 180.681 176.861C180.733 176.881 180.804 176.889 180.876 176.889H185.322L185.128 175.11H178.694V186.639H185.112L185.322 184.86H180.876L180.872 184.852ZM171.354 184.852C171.255 184.852 171.176 184.86 171.12 184.88C171.068 184.9 171.013 184.932 170.957 184.984L170.89 184.916C170.941 184.86 170.973 184.809 170.993 184.761C171.013 184.713 171.021 184.63 171.021 184.518V175.087H169.121V186.627H174.971L175.253 184.848H171.35L171.354 184.852ZM161.774 184.852C161.67 184.852 161.591 184.86 161.539 184.88C161.484 184.9 161.432 184.932 161.376 184.984L161.313 184.916C161.36 184.86 161.396 184.809 161.412 184.761C161.432 184.713 161.444 184.63 161.444 184.518V175.087H159.544V186.627H165.394L165.676 184.848H161.774V184.852ZM150.989 184.852C150.885 184.852 150.81 184.86 150.754 184.88C150.699 184.9 150.643 184.932 150.583 184.984L150.528 184.928C150.571 184.868 150.603 184.809 150.623 184.753C150.643 184.697 150.655 184.622 150.655 184.522V181.98C150.655 181.901 150.643 181.829 150.623 181.766C150.603 181.706 150.567 181.642 150.528 181.583L150.591 181.519C150.651 181.567 150.703 181.598 150.754 181.614C150.806 181.63 150.881 181.642 150.989 181.646H154.875V179.9H150.989C150.889 179.9 150.818 179.908 150.766 179.924C150.715 179.94 150.655 179.975 150.583 180.031L150.52 179.964C150.575 179.88 150.607 179.812 150.631 179.761C150.647 179.705 150.659 179.641 150.659 179.566V177.219C150.659 177.139 150.647 177.068 150.627 177.004C150.607 176.944 150.571 176.877 150.532 176.813L150.587 176.749C150.671 176.801 150.738 176.837 150.794 176.861C150.854 176.881 150.917 176.889 150.993 176.889H155.439L155.245 175.11H148.811V186.639H155.225L155.435 184.86H150.989V184.852ZM142.087 181.03C142.036 180.926 141.988 180.859 141.952 180.831C141.92 180.803 141.869 180.779 141.813 180.763V180.699C141.869 180.684 141.92 180.66 141.952 180.632C141.988 180.604 142.032 180.536 142.087 180.433L145.111 175.11H143.033L141.309 178.352C141.165 178.611 141.074 178.826 141.026 178.985C140.979 179.148 140.939 179.407 140.911 179.765H140.828C140.8 179.426 140.764 179.176 140.712 179.005C140.661 178.834 140.565 178.615 140.426 178.352L138.698 175.11H136.623L139.632 180.433C139.683 180.52 139.727 180.584 139.767 180.62C139.806 180.66 139.858 180.684 139.918 180.699V180.763C139.858 180.779 139.806 180.807 139.767 180.843C139.727 180.878 139.683 180.942 139.632 181.03L136.508 186.635H138.602L140.426 183.126C140.589 182.812 140.693 182.573 140.736 182.406C140.784 182.239 140.812 182.008 140.832 181.714H140.915C140.943 182.044 140.979 182.291 141.026 182.458C141.07 182.621 141.165 182.848 141.312 183.126L143.136 186.635H145.227L142.087 181.03ZM133.111 175.106H131.219V181.777C131.219 182.879 131 183.707 130.555 184.248C130.11 184.793 129.443 185.063 128.541 185.063C127.639 185.063 126.975 184.793 126.53 184.248C126.085 183.703 125.866 182.879 125.866 181.777V175.106H123.979V181.591C123.979 182.545 124.074 183.321 124.261 183.922C124.448 184.522 124.742 185.027 125.139 185.441C125.572 185.899 126.081 186.245 126.669 186.487C127.257 186.73 127.881 186.853 128.545 186.853C129.208 186.853 129.836 186.73 130.424 186.487C131.008 186.245 131.521 185.895 131.954 185.441C132.348 185.027 132.638 184.522 132.832 183.922C133.023 183.321 133.115 182.545 133.115 181.591V175.106H133.111ZM117.656 182.06C117.549 181.905 117.418 181.754 117.259 181.618C117.104 181.479 116.921 181.352 116.711 181.225L116.742 181.169C116.886 181.209 117.009 181.236 117.124 181.252C117.239 181.272 117.346 181.28 117.45 181.28C118.161 181.28 118.761 180.998 119.254 180.433C119.739 179.868 119.989 179.172 119.989 178.348C119.989 177.298 119.667 176.495 119.031 175.938C118.396 175.385 117.462 175.106 116.234 175.106H113.19V186.635H115.006V182.573C115.006 182.143 114.994 181.825 114.974 181.618C114.95 181.412 114.911 181.173 114.855 180.902L114.934 180.878C115.026 181.121 115.121 181.332 115.213 181.507C115.308 181.682 115.467 181.929 115.689 182.243L118.642 186.639H120.704L117.66 182.064L117.656 182.06ZM117.815 179.613C117.517 179.88 117.052 180.015 116.421 180.015H115.3C115.197 180.015 115.121 180.023 115.069 180.043C115.018 180.063 114.962 180.095 114.903 180.143L114.839 180.079C114.903 180.007 114.946 179.944 114.97 179.88C114.994 179.824 115.006 179.753 115.006 179.677V177.036C114.986 176.936 114.962 176.861 114.938 176.805C114.914 176.749 114.883 176.69 114.839 176.63L114.903 176.566C114.974 176.618 115.034 176.654 115.081 176.67C115.129 176.686 115.201 176.694 115.3 176.694H116.421C117.048 176.694 117.513 176.829 117.811 177.099C118.113 177.366 118.26 177.78 118.26 178.344C118.26 178.909 118.113 179.339 117.815 179.609M108.588 181.423C108.203 180.95 107.67 180.652 106.995 180.528V180.429C107.563 180.262 107.988 179.991 108.262 179.613C108.537 179.236 108.676 178.742 108.676 178.13C108.676 177.147 108.362 176.399 107.734 175.886C107.102 175.369 106.18 175.106 104.956 175.106H101.745V186.635H105.203C106.446 186.635 107.416 186.316 108.115 185.672C108.815 185.031 109.16 184.204 109.16 183.194C109.16 182.49 108.97 181.901 108.588 181.427M106.526 179.423C106.24 179.701 105.826 179.84 105.29 179.84H103.804C103.704 179.84 103.633 179.848 103.585 179.868C103.538 179.888 103.478 179.924 103.406 179.979L103.343 179.916C103.343 179.916 103.355 179.892 103.367 179.876C103.446 179.753 103.49 179.629 103.49 179.51V177.036C103.486 176.96 103.47 176.897 103.454 176.845C103.434 176.793 103.398 176.725 103.343 176.638L103.406 176.574C103.47 176.626 103.526 176.662 103.573 176.678C103.621 176.694 103.696 176.702 103.8 176.702H105.067C105.731 176.702 106.216 176.825 106.514 177.072C106.812 177.318 106.959 177.7 106.959 178.221C106.959 178.742 106.816 179.148 106.526 179.426M106.875 184.51C106.51 184.841 106.009 185 105.358 185H103.824C103.724 185 103.653 185.008 103.601 185.027C103.553 185.047 103.494 185.083 103.422 185.135L103.359 185.063C103.418 184.988 103.454 184.928 103.466 184.884C103.482 184.841 103.49 184.765 103.49 184.665V181.694C103.49 181.614 103.486 181.547 103.466 181.499C103.454 181.451 103.418 181.38 103.359 181.296L103.422 181.225C103.494 181.276 103.553 181.316 103.601 181.336C103.653 181.356 103.724 181.364 103.824 181.364H105.294C105.707 181.364 106.037 181.404 106.283 181.483C106.534 181.563 106.748 181.698 106.935 181.893C107.082 182.056 107.205 182.247 107.289 182.466C107.376 182.684 107.42 182.911 107.42 183.142C107.42 183.727 107.241 184.184 106.879 184.51M97.39 181.614H93.4083V183.321H97.39V181.614ZM85.3891 184.852C85.2858 184.852 85.2063 184.86 85.1547 184.88C85.099 184.9 85.0434 184.932 84.9838 184.984L84.9282 184.928C84.9719 184.868 85.0076 184.809 85.0275 184.753C85.0514 184.697 85.0593 184.622 85.0593 184.522V181.98C85.0593 181.901 85.0514 181.829 85.0275 181.766C85.0076 181.706 84.9759 181.642 84.9282 181.583L84.9917 181.519C85.0514 181.567 85.107 181.598 85.1547 181.614C85.2024 181.63 85.2818 181.642 85.3891 181.646H89.2755V179.9H85.3891C85.2898 179.9 85.2183 179.908 85.1666 179.924C85.1149 179.94 85.0553 179.975 84.9838 180.031L84.9202 179.964C84.9759 179.88 85.0116 179.812 85.0315 179.761C85.0514 179.705 85.0593 179.641 85.0593 179.566V177.219C85.0593 177.139 85.0514 177.068 85.0275 177.004C85.0076 176.944 84.9759 176.877 84.9282 176.813L84.9838 176.749C85.0633 176.801 85.1348 176.837 85.1904 176.861C85.2461 176.881 85.3136 176.889 85.3891 176.889H89.8358L89.6411 175.11H83.2075V186.639H89.6252L89.8358 184.86H85.3891V184.852ZM78.5144 175.091H76.6229V186.631H78.5144V175.091ZM71.9219 175.106H70.094V182.191C70.094 182.521 70.1218 182.863 70.1734 183.221C70.2291 183.576 70.3165 184.005 70.4397 184.506L70.3562 184.522C70.2052 184.085 70.0582 183.711 69.9151 183.408C69.7721 183.106 69.6012 182.812 69.4065 182.521L64.32 175.106H62.6232V186.635H64.4551V179.538C64.4551 179.232 64.4313 178.929 64.3876 178.627C64.3399 178.325 64.2485 177.859 64.1054 177.239L64.1889 177.223C64.3717 177.744 64.5227 178.126 64.6379 178.368C64.7532 178.611 64.9161 178.889 65.1346 179.204L70.2132 186.635H71.91V175.106H71.9219ZM57.0201 176.558C55.9393 175.445 54.5405 174.892 52.8238 174.892C51.1071 174.892 49.7958 175.452 48.7228 176.582C47.6499 177.708 47.1134 179.136 47.1134 180.863C47.1134 182.589 47.6499 184.045 48.7268 185.163C49.8037 186.281 51.1866 186.841 52.8715 186.841C54.5564 186.841 55.9353 186.281 57.0201 185.163C58.101 184.045 58.6414 182.617 58.6414 180.878C58.6414 179.14 58.101 177.676 57.0201 176.562M55.669 183.886C54.9617 184.65 54.0318 185.031 52.8755 185.031C51.7191 185.031 50.7852 184.65 50.0819 183.886C49.3745 183.122 49.0248 182.112 49.0248 180.859C49.0248 179.605 49.3785 178.599 50.0898 177.835C50.8011 177.068 51.735 176.686 52.8914 176.686C54.0477 176.686 54.9498 177.076 55.6611 177.851C56.3724 178.627 56.73 179.633 56.73 180.863C56.73 182.092 56.3764 183.126 55.669 183.89M40.6798 184.852C40.5765 184.852 40.497 184.86 40.4414 184.88C40.3898 184.9 40.3341 184.932 40.2785 184.984L40.2149 184.916C40.2666 184.86 40.2984 184.809 40.3182 184.761C40.3381 184.713 40.346 184.63 40.346 184.518V175.087H38.4466V186.627H44.296L44.5781 184.848H40.6759L40.6798 184.852ZM31.0911 184.852C30.9877 184.852 30.9122 184.86 30.8566 184.88C30.801 184.9 30.7493 184.932 30.6937 184.984L30.6301 184.916C30.6778 184.86 30.7135 184.809 30.7294 184.761C30.7453 184.713 30.7573 184.63 30.7573 184.518V175.087H28.8617V186.627H34.7112L34.9973 184.848H31.095L31.0911 184.852ZM21.2559 175.106H19.6068L15.4223 186.635H17.3218L18.5457 183.174H22.3328L23.5488 186.635H25.4403L21.2559 175.106ZM21.8877 181.555C21.8281 181.535 21.7725 181.519 21.7168 181.507C21.6612 181.495 21.5976 181.491 21.5221 181.491H19.3405C19.273 181.491 19.2133 181.491 19.1657 181.503C19.118 181.511 19.0584 181.527 18.9829 181.555L18.9272 181.475C18.9749 181.435 19.0147 181.4 19.0425 181.36C19.0663 181.324 19.0941 181.272 19.114 181.205L20.2068 178.046C20.2545 177.911 20.2942 177.72 20.322 177.473C20.3538 177.227 20.3737 176.948 20.3856 176.634H20.473C20.485 176.948 20.5048 177.227 20.5327 177.473C20.5644 177.72 20.6042 177.911 20.6519 178.046L21.7327 181.205C21.7526 181.272 21.7804 181.32 21.8082 181.36C21.84 181.4 21.8798 181.435 21.9354 181.475L21.8877 181.555ZM11.7148 175.106L9.54111 182.676C9.45368 182.979 9.39408 183.249 9.36229 183.488C9.33049 183.727 9.30268 184.117 9.28678 184.65H9.19141C9.13578 184.093 9.08809 183.695 9.04438 183.456C9.00067 183.217 8.93311 182.959 8.84172 182.676L6.86276 176.837L4.88778 182.692C4.79241 182.963 4.72088 183.217 4.67717 183.456C4.63346 183.695 4.58577 184.093 4.53014 184.65H4.43079C4.4149 184.109 4.39105 183.723 4.36324 183.488C4.33145 183.253 4.27184 182.987 4.18044 182.676L2.00677 175.106H0L3.489 186.635H5.20171L6.63626 182.028C6.67997 181.881 6.71573 181.678 6.74752 181.419C6.77931 181.161 6.80315 180.843 6.81905 180.469L6.89853 180.461C6.91442 180.835 6.93826 181.149 6.97005 181.412C6.99787 181.67 7.03761 181.877 7.08529 182.028L8.52779 186.635H10.2246L13.7295 175.106H11.7188H11.7148Z" fill="#FBFCFA"/>
<path d="M195.698 146.628H192.384V159.489C192.384 160.089 192.431 160.71 192.531 161.358C192.63 162.003 192.793 162.778 193.016 163.693L192.865 163.725C192.594 162.93 192.324 162.253 192.066 161.704C191.804 161.155 191.498 160.618 191.144 160.097L181.909 146.632H178.829V167.56H182.155V154.671C182.155 154.122 182.111 153.573 182.028 153.021C181.945 152.472 181.778 151.628 181.523 150.498L181.67 150.471C182.004 151.413 182.278 152.11 182.489 152.551C182.7 152.993 183.002 153.502 183.395 154.071L192.618 167.564H195.698V146.636V146.628ZM168.835 149.261C166.872 147.241 164.333 146.23 161.217 146.23C158.102 146.23 155.717 147.252 153.77 149.297C151.819 151.342 150.85 153.935 150.85 157.07C150.85 160.205 151.823 162.846 153.778 164.875C155.733 166.908 158.241 167.922 161.309 167.922C164.376 167.922 166.872 166.908 168.835 164.875C170.798 162.846 171.784 160.252 171.784 157.094C171.784 153.935 170.798 151.278 168.835 149.257M166.383 162.572C165.1 163.956 163.407 164.648 161.309 164.648C159.21 164.648 157.514 163.956 156.234 162.572C154.954 161.183 154.311 159.349 154.311 157.07C154.311 154.791 154.958 152.965 156.25 151.577C157.541 150.184 159.238 149.488 161.34 149.488C163.443 149.488 165.08 150.192 166.371 151.604C167.663 153.017 168.306 154.838 168.306 157.07C168.306 159.302 167.667 161.183 166.387 162.572M143.581 146.6H140.152V167.556H143.581V146.6ZM133.436 146.628H121.062L120.621 149.771H124.952C125.139 149.771 125.282 149.755 125.377 149.719C125.477 149.683 125.576 149.619 125.671 149.532L125.803 149.651C125.691 149.81 125.628 149.934 125.596 150.025C125.568 150.121 125.552 150.232 125.552 150.371V167.552H128.938V150.371C128.938 150.216 128.926 150.085 128.89 149.981C128.855 149.882 128.795 149.763 128.707 149.635L128.827 149.52C128.95 149.619 129.061 149.683 129.149 149.719C129.236 149.751 129.371 149.771 129.546 149.771H133.889L133.432 146.628H133.436ZM110.468 146.628H107.475L99.8735 167.556H103.323L105.548 161.275H112.431L114.64 167.556H118.074L110.472 146.628H110.468ZM111.62 158.339C111.509 158.299 111.409 158.271 111.31 158.252C111.211 158.232 111.092 158.22 110.956 158.22H106.995C106.867 158.22 106.764 158.228 106.677 158.244C106.593 158.256 106.482 158.291 106.343 158.339L106.24 158.192C106.327 158.12 106.395 158.053 106.446 157.985C106.494 157.917 106.538 157.822 106.577 157.707L108.568 151.97C108.656 151.724 108.723 151.378 108.779 150.932C108.834 150.487 108.87 149.977 108.89 149.409H109.053C109.073 149.981 109.109 150.487 109.16 150.932C109.216 151.382 109.287 151.728 109.375 151.97L111.334 157.707C111.374 157.822 111.417 157.917 111.473 157.985C111.525 158.053 111.604 158.12 111.7 158.192L111.612 158.339H111.62ZM89.176 159.25C88.9774 158.968 88.7389 158.697 88.4528 158.446C88.1707 158.196 87.8329 157.957 87.4514 157.73L87.511 157.627C87.7653 157.695 87.9998 157.746 88.2064 157.782C88.4131 157.814 88.6078 157.834 88.7946 157.834C90.09 157.834 91.1828 157.321 92.0729 156.294C92.9631 155.268 93.4081 154.007 93.4081 152.511C93.4081 150.606 92.828 149.146 91.6676 148.14C90.5112 147.133 88.8184 146.628 86.5891 146.628H81.0655V167.556H84.3638V160.181C84.3638 159.393 84.3439 158.816 84.3042 158.442C84.2644 158.069 84.1929 157.635 84.0816 157.146L84.2287 157.102C84.3956 157.547 84.5664 157.925 84.7373 158.248C84.9082 158.566 85.1983 159.011 85.5996 159.58L90.9643 167.56H94.7036L89.18 159.254L89.176 159.25ZM89.4542 154.807C88.9138 155.292 88.0713 155.539 86.9229 155.539H84.8883C84.7015 155.539 84.5625 155.554 84.4671 155.59C84.3757 155.626 84.2763 155.686 84.1651 155.773L84.0459 155.658C84.1651 155.531 84.2446 155.411 84.2883 155.304C84.332 155.196 84.3558 155.073 84.3558 154.938V150.144C84.3161 149.965 84.2724 149.826 84.2287 149.727C84.1849 149.623 84.1214 149.516 84.0459 149.409L84.1651 149.289C84.2922 149.385 84.3995 149.452 84.4909 149.48C84.5784 149.508 84.7095 149.524 84.8883 149.524H86.9229C88.0634 149.524 88.9058 149.767 89.4463 150.252C89.9946 150.737 90.2649 151.493 90.2649 152.515C90.2649 153.538 89.9947 154.321 89.4542 154.811M66.5492 140.184L65.1067 144.237H67.642L70.3521 140.184H66.5532H66.5492ZM65.7664 164.326C65.5796 164.326 65.4365 164.342 65.3372 164.378C65.2378 164.413 65.1345 164.473 65.0272 164.561L64.9279 164.457C65.0034 164.35 65.063 164.242 65.1027 164.139C65.1425 164.036 65.1623 163.896 65.1623 163.717V159.099C65.1623 158.952 65.1425 158.82 65.1027 158.709C65.063 158.598 65.0034 158.486 64.9279 158.379L65.0431 158.26C65.1504 158.347 65.2498 158.411 65.3372 158.439C65.4246 158.466 65.5677 158.49 65.7664 158.498H72.8238V155.328H65.7664C65.5875 155.328 65.4524 155.34 65.361 155.371C65.2657 155.403 65.1584 155.463 65.0272 155.562L64.912 155.443C65.0113 155.292 65.0749 155.173 65.1107 155.073C65.1464 154.974 65.1623 154.854 65.1623 154.719V150.455C65.1623 150.308 65.1425 150.176 65.1027 150.065C65.063 149.953 65.0034 149.838 64.9279 149.719L65.0272 149.599C65.1743 149.699 65.3014 149.763 65.4047 149.798C65.5081 149.834 65.6273 149.85 65.7664 149.85H73.8411L73.4875 146.62H61.8045V167.548H73.4557L73.8411 164.318H65.7664V164.326ZM51.7309 149.576C49.6486 147.61 47.006 146.628 43.8031 146.628H38.1921V167.556H43.6879C46.9981 167.556 49.6883 166.569 51.7547 164.592C53.8211 162.615 54.8543 160.121 54.8543 157.098C54.8543 154.075 53.8132 151.545 51.7309 149.576ZM49.3307 162.357C47.8962 163.729 46.0722 164.413 43.8627 164.413H42.2136C42.0149 164.413 41.8758 164.425 41.7844 164.457C41.697 164.485 41.5977 164.549 41.4904 164.648L41.3593 164.529C41.4665 164.421 41.5341 164.322 41.5659 164.234C41.5937 164.147 41.6096 164.004 41.6096 163.809V150.371C41.6096 150.224 41.5937 150.101 41.5579 150.001C41.5262 149.902 41.4586 149.786 41.3593 149.647L41.4904 149.516C41.6175 149.615 41.7288 149.679 41.8162 149.715C41.9037 149.747 42.0388 149.767 42.2136 149.767H44.0257C46.1676 149.767 47.9438 150.459 49.3625 151.839C50.7772 153.219 51.4805 154.974 51.4805 157.094C51.4805 159.214 50.7613 160.98 49.3307 162.353M23.652 140.184L22.2095 144.237H24.7448L27.4549 140.184H23.652ZM22.8731 164.326C22.6863 164.326 22.5433 164.342 22.4479 164.378C22.3486 164.413 22.2452 164.473 22.138 164.561L22.0346 164.457C22.1141 164.35 22.1737 164.242 22.2135 164.139C22.2532 164.036 22.2731 163.896 22.2731 163.717V159.099C22.2731 158.952 22.2532 158.82 22.2135 158.709C22.1737 158.598 22.1181 158.486 22.0346 158.379L22.1538 158.26C22.2611 158.347 22.3605 158.411 22.4479 158.439C22.5353 158.466 22.6784 158.49 22.8731 158.498H29.9306V155.328H22.8731C22.6983 155.328 22.5631 155.34 22.4678 155.371C22.3764 155.403 22.2651 155.463 22.138 155.562L22.0187 155.443C22.1181 155.292 22.1856 155.173 22.2174 155.073C22.2532 154.974 22.2691 154.854 22.2691 154.719V150.455C22.2691 150.308 22.2492 150.176 22.2095 150.065C22.1697 149.953 22.1141 149.838 22.0307 149.719L22.134 149.599C22.281 149.699 22.4082 149.763 22.5115 149.798C22.6148 149.834 22.734 149.85 22.8731 149.85H30.9479L30.5942 146.62H18.9112V167.548H30.5664L30.9479 164.318H22.8731V164.326ZM12.0644 146.628H0.293945V167.556H3.74321V159.103C3.74321 158.928 3.72334 158.793 3.69155 158.697C3.65578 158.602 3.59618 158.494 3.50875 158.363L3.62399 158.244C3.75116 158.343 3.86242 158.411 3.94985 158.442C4.03727 158.478 4.17238 158.494 4.34723 158.494H11.3451V155.324H4.28762C4.07303 155.324 3.926 155.336 3.84653 155.368C3.77103 155.399 3.66771 155.455 3.55247 155.547L3.43325 155.443C3.56041 155.292 3.64386 155.173 3.6836 155.073C3.72334 154.974 3.74321 154.854 3.74321 154.719V150.487C3.70347 150.28 3.66373 150.133 3.62399 150.045C3.58426 149.957 3.52068 149.862 3.43325 149.763L3.56836 149.643C3.69552 149.743 3.80282 149.806 3.89421 149.834C3.98164 149.862 4.11675 149.878 4.29159 149.878H12.6167L12.0723 146.62L12.0644 146.628Z" fill="#FBFCFA"/>
</g>
<defs>
<clipPath id="clip0_438_1076">
<rect width="196" height="186.853" fill="white"/>
</clipPath>
</defs>
</svg>
