<svg width="304" height="523" viewBox="0 0 304 523" fill="none" xmlns="http://www.w3.org/2000/svg">
<g clip-path="url(#clip0_379_1120)">
<path d="M179.299 0.328464C179.299 0.328464 157.389 -4.98154 144.129 27.0985C133.079 53.8385 125.239 68.1185 134.209 77.8185C137.419 81.2885 141.999 83.1585 146.719 83.3185L197.219 84.9785C197.219 84.9785 215.759 36.3585 204.489 18.7785C193.219 1.18846 179.299 0.328464 179.299 0.328464Z" fill="#272343"/>
<path d="M189.759 80.9385L165.469 88.9285V53.9585H187.509L189.759 80.9385Z" fill="#E0B390"/>
<path d="M171.118 504.688H148.358L135.168 383.108H170.338L171.118 504.688Z" fill="#E0B390"/>
<path d="M126.199 524.228C123.809 524.228 121.679 524.168 120.069 524.018C114.019 523.468 108.259 519.008 105.359 516.398C104.059 515.228 103.639 513.358 104.319 511.748C104.809 510.588 105.779 509.728 106.979 509.388L122.949 504.828L148.809 487.378L149.099 487.898C149.209 488.088 151.749 492.668 152.599 495.758C152.919 496.938 152.839 497.918 152.349 498.668C152.009 499.198 151.539 499.498 151.149 499.668C151.619 500.158 153.089 501.148 157.599 501.868C164.199 502.918 165.579 496.078 165.639 495.788L165.679 495.558L165.879 495.428C169.019 493.408 170.949 492.488 171.619 492.678C172.039 492.798 172.729 493.008 174.599 511.628C174.789 512.208 176.099 516.498 175.209 520.588C174.239 525.048 154.769 523.508 150.869 523.158C150.759 523.168 136.179 524.208 126.189 524.208V524.228H126.199Z" fill="#272343"/>
<path d="M222.519 504.688H199.769L186.569 383.108H221.739L222.519 504.688Z" fill="#E0B390"/>
<path d="M177.609 524.228C175.219 524.228 173.089 524.168 171.479 524.018C165.429 523.468 159.669 519.008 156.769 516.398C155.469 515.228 155.049 513.358 155.729 511.748C156.219 510.588 157.189 509.728 158.389 509.388L174.359 504.828L200.219 487.378L200.509 487.898C200.619 488.088 203.159 492.668 204.009 495.758C204.329 496.938 204.249 497.918 203.759 498.668C203.419 499.198 202.949 499.498 202.559 499.668C203.029 500.158 204.499 501.148 209.009 501.868C215.609 502.918 216.989 496.078 217.049 495.788L217.089 495.558L217.289 495.428C220.429 493.408 222.359 492.488 223.029 492.678C223.449 492.798 224.139 493.008 226.009 511.628C226.199 512.208 227.509 516.498 226.619 520.588C225.649 525.048 206.179 523.508 202.279 523.158C202.169 523.168 187.589 524.208 177.599 524.208V524.228H177.609Z" fill="#272343"/>
<path d="M229.069 206.068H118.509L158.249 75.2784H202.329L229.069 206.068Z" fill="#DDDEDF"/>
<path d="M115.498 279.458C114.178 287.468 108.838 293.218 103.568 292.288C98.2984 291.358 95.0884 284.118 96.4084 276.108C96.8884 272.898 98.1584 269.868 100.108 267.258L106.128 233.388L122.518 236.818L114.838 269.838C115.848 272.958 116.078 276.258 115.508 279.458L115.498 279.458Z" fill="#E0B390"/>
<path d="M165.209 75.2985C165.209 75.2985 137.749 74.5785 134.859 81.7985C131.969 89.0285 98.0088 261.008 98.0088 261.008H120.409L165.209 75.2985Z" fill="#DDDEDF"/>
<path d="M171.039 62.2185C184.409 62.2185 195.249 51.3793 195.249 38.0085C195.249 24.6376 184.409 13.7985 171.039 13.7985C157.668 13.7985 146.829 24.6376 146.829 38.0085C146.829 51.3793 157.668 62.2185 171.039 62.2185Z" fill="#E0B390"/>
<path d="M174.839 8.31847C174.839 8.31847 143.759 54.5485 148.989 83.3885L130.909 72.0585C130.909 72.0585 143.639 13.6785 162.609 9.14847L174.839 8.30847L174.839 8.31847Z" fill="#272343"/>
<path d="M206.089 206.068H133.539L93.8388 368.998C93.1088 375.878 97.4688 382.298 104.159 384.088C125.939 389.918 178.199 398.188 257.309 375.168C264.919 372.958 269.239 364.928 266.849 357.368L206.089 206.078L206.089 206.068Z" fill="#272343"/>
<path d="M174.039 87.5185L194.139 77.2085C203.329 73.8085 213.579 74.9485 221.799 80.2985C246.799 96.5585 296.079 132.409 274.899 150.129C246.989 173.489 209.259 132.059 209.259 132.059L174.039 87.5185Z" fill="#DDDEDF"/>
<path d="M105.212 112.473L105.121 112.563C104.297 111.63 103.45 110.71 102.557 109.818C79.0954 86.3559 41.057 86.3566 17.596 109.818C-5.86501 133.279 -5.86566 171.317 17.596 194.779C18.4886 195.671 19.4084 196.518 20.3418 197.343L20.251 197.434L105.212 282.395L190.173 197.434C213.634 173.973 213.634 135.934 190.173 112.473C166.711 89.0109 128.673 89.0116 105.212 112.473Z" fill="#FFD803"/>
<path d="M173.599 105.138C166.609 101.018 163.179 93.9584 165.949 89.3684C168.719 84.7884 176.629 84.4184 183.629 88.5384C186.449 90.1484 188.819 92.4284 190.539 95.1884L219.939 113.048L210.819 127.088L182.799 107.988C179.519 107.798 176.359 106.818 173.589 105.128H173.599L173.599 105.138Z" fill="#E0B390"/>
<path d="M193.579 121.328L201.939 101.358L242.789 114.878L224.519 145.288L193.579 121.328Z" fill="#DDDEDF"/>
</g>
<defs>
<clipPath id="clip0_379_1120">
<rect width="304" height="523" fill="white"/>
</clipPath>
</defs>
</svg>
