<?xml version="1.0" encoding="UTF-8"?>
<svg id="Layer_2" data-name="Layer 2" xmlns="http://www.w3.org/2000/svg" viewBox="0 0 493.61 335.59">
  <defs>
    <style>
      .cls-1 {
        fill: #9cdadf;
      }

      .cls-2 {
        fill: #ffd85a;
      }

      .cls-3 {
        fill: #1a1a1a;
        stroke: #000;
        stroke-miterlimit: 10;
      }

      .cls-4 {
        fill: #145f9f;
      }

      .cls-5 {
        fill: #00a9bf;
      }
    </style>
  </defs>
  <g id="Logo_Lvm" data-name="Logo Lvm">
    <polygon class="cls-3" points="12.4 271.57 52.48 .5 73.04 .5 166.91 211.45 273.44 .5 302.45 .5 338.84 271.57 279.24 271.57 262.54 90.68 179.57 254.17 150.57 259.44 68.82 94.37 49.31 271.57 12.4 271.57"/>
    <polygon class="cls-3" points="86.23 .5 166.91 177.7 258.15 .5 228.62 .5 166.91 125.49 114.18 .5 86.23 .5"/>
    <path class="cls-4" d="M137.66,335.59c31.46-11.32,135.44-48.07,176.14-49.57,5.08-.19,9.49,0,9.49,0,30.9,1.31,41.79,14.67,67.5,22.15,5.65,1.64,36.87,10.23,68.56-1.58,17.69-6.59,29.3-17.22,29.53-16.88.29.42-16.78,16.39-42.72,27.95-11.69,5.21-37.85,16.87-70.14,13.71-28.16-2.75-33.1-14.05-62.76-18.46-24.12-3.58-38.54-2.15-59.82.96l-115.79,21.71Z"/>
    <path class="cls-5" d="M74.52,285.94c31.46-11.32,135.44-48.07,176.14-49.57,5.08-.19,9.49,0,9.49,0,30.9,1.31,41.79,14.67,67.5,22.15,5.65,1.64,36.87,10.23,68.56-1.58,17.69-6.59,29.3-17.22,29.53-16.88.29.42-16.78,16.39-42.72,27.95-11.69,5.21-37.85,16.87-70.14,13.71-28.16-2.75-33.1-14.05-62.76-18.46-24.12-3.58-38.54-2.15-59.82.96l-115.79,21.71Z"/>
    <path class="cls-1" d="M0,231.82c31.46-11.32,135.44-48.07,176.14-49.57,5.08-.19,9.49,0,9.49,0,30.9,1.31,41.79,14.67,67.5,22.15,5.65,1.64,36.87,10.23,68.56-1.58,17.69-6.59,29.3-17.22,29.53-16.88.29.42-16.78,16.39-42.72,27.95-11.69,5.21-37.85,16.87-70.14,13.71-28.16-2.75-33.1-14.05-62.76-18.46-24.12-3.58-38.54-2.15-59.82.96L0,231.82Z"/>
    <g>
      <rect class="cls-2" x="367.72" y="108.64" width="13.07" height="26.18" transform="translate(44.25 -92.7) rotate(15)"/>
      <rect class="cls-2" x="343.69" y="106.85" width="13.07" height="26.18" transform="translate(-9.12 31) rotate(-5)"/>
      <rect class="cls-2" x="413.9" y="204.41" width="13.07" height="26.18" transform="translate(795.22 -71.64) rotate(115)"/>
      <rect class="cls-2" x="419.84" y="181.05" width="13.07" height="26.18" transform="translate(656.91 -213.7) rotate(95)"/>
      <rect class="cls-2" x="417.42" y="157.07" width="13.07" height="26.18" transform="translate(478.57 -283.39) rotate(75)"/>
      <rect class="cls-2" x="406.96" y="135.36" width="13.07" height="26.18" transform="translate(297.91 -275.4) rotate(55)"/>
      <rect class="cls-2" x="389.7" y="118.54" width="13.07" height="26.18" transform="translate(147.14 -203.45) rotate(35)"/>
    </g>
    <g>
      <polygon class="cls-2" points="381.09 97.54 401.07 105.62 417.33 65.17 397.34 57.09 381.09 97.54"/>
      <polygon class="cls-2" points="348.64 95.07 370.19 95.77 371.77 52.22 350.22 51.52 348.64 95.07"/>
      <polygon class="cls-2" points="442.72 228 431.26 246.48 467.87 269.45 479.33 250.98 442.72 228"/>
      <polygon class="cls-2" points="450.92 196.2 446.4 217.48 488.65 226.41 493.17 205.13 450.92 196.2"/>
      <polygon class="cls-2" points="447.84 163.55 450.81 185.07 493.61 178.87 490.65 157.35 447.84 163.55"/>
      <polygon class="cls-2" points="433.87 133.97 443.96 153.14 482.15 132.57 472.06 113.4 433.87 133.97"/>
      <polygon class="cls-2" points="410.69 111.05 426.69 125.55 455.66 93.08 439.66 78.58 410.69 111.05"/>
    </g>
    <g>
      <rect class="cls-2" x="367.49" y="143.93" width="7.99" height="16.02" transform="translate(99 -142.75) rotate(25)"/>
      <rect class="cls-2" x="353.2" y="140.3" width="7.99" height="16.02" transform="translate(14.28 -30.55) rotate(5)"/>
      <rect class="cls-2" x="391.19" y="193.09" width="7.99" height="16.02" transform="translate(691.7 -128.6) rotate(105)"/>
      <rect class="cls-2" x="392.29" y="178.38" width="7.99" height="16.02" transform="translate(547.41 -224.63) rotate(85)"/>
      <rect class="cls-2" x="388.29" y="164.19" width="7.99" height="16.02" transform="translate(382.55 -256.1) rotate(65)"/>
      <rect class="cls-2" x="379.68" y="152.23" width="7.99" height="16.02" transform="translate(225.66 -224.36) rotate(45)"/>
    </g>
  </g>
</svg>