<svg width="198" height="44" viewBox="0 0 198 44" fill="none" xmlns="http://www.w3.org/2000/svg">
<path d="M73.7599 16.2877H68.138L67.2083 18.9733H64.2333L69.3084 4.86865H72.6005L77.6756 18.9733H74.6896L73.7599 16.2877ZM72.9942 14.0279L70.949 8.13281L68.9037 14.0279H72.9834H72.9942Z" fill="#FBFCFA"/>
<path d="M79.7647 5.98227C79.4365 5.66567 79.2724 5.27267 79.2724 4.80324C79.2724 4.33382 79.4365 3.94081 79.7647 3.62421C80.0928 3.30763 80.5084 3.15479 81.0115 3.15479C81.5146 3.15479 81.9193 3.31854 82.2584 3.62421C82.5974 3.92989 82.7506 4.33382 82.7506 4.80324C82.7506 5.27267 82.5866 5.66567 82.2584 5.98227C81.9303 6.29886 81.5146 6.45169 81.0115 6.45169C80.5084 6.45169 80.0928 6.29886 79.7647 5.98227ZM82.4006 7.79448V18.9734H79.5678V7.79448H82.4006Z" fill="#FBFCFA"/>
<path d="M85.1459 10.3381C85.5943 9.46476 86.2177 8.78791 86.9943 8.31848C87.7708 7.84905 88.6459 7.60888 89.6083 7.60888C90.3303 7.60888 91.0302 7.77263 91.6865 8.07831C92.3428 8.38398 92.8678 8.80975 93.2616 9.34468V4.03906H96.1381V18.9734H93.2616V17.314C92.9115 17.8708 92.4193 18.3075 91.7849 18.6459C91.1505 18.9843 90.4177 19.1481 89.5756 19.1481C88.6349 19.1481 87.7708 18.9079 86.9834 18.4275C86.1959 17.9472 85.5833 17.2594 85.1349 16.3752C84.6865 15.4908 84.4568 14.4756 84.4568 13.3403C84.4568 12.2049 84.6865 11.2114 85.1349 10.3381H85.1459ZM92.8787 11.6154C92.6053 11.1241 92.2443 10.742 91.7849 10.4801C91.3255 10.218 90.8334 10.087 90.3084 10.087C89.7833 10.087 89.3022 10.218 88.8536 10.4691C88.4052 10.7202 88.0443 11.1023 87.7708 11.5936C87.4974 12.0848 87.3552 12.6634 87.3552 13.3403C87.3552 14.0171 87.4974 14.6066 87.7708 15.1088C88.0443 15.611 88.4162 16.0039 88.8646 16.266C89.313 16.5389 89.7943 16.6699 90.3084 16.6699C90.8224 16.6699 91.3255 16.5389 91.7849 16.2769C92.2443 16.0149 92.6053 15.6328 92.8787 15.1415C93.1522 14.6502 93.2834 14.0607 93.2834 13.373C93.2834 12.6852 93.1522 12.0957 92.8787 11.6045V11.6154Z" fill="#FBFCFA"/>
<path d="M109.23 14.2243H101.049C101.115 15.0322 101.399 15.6653 101.902 16.1238C102.405 16.5823 103.018 16.8116 103.74 16.8116C104.79 16.8116 105.534 16.364 105.981 15.4579H109.034C108.705 16.5387 108.093 17.4229 107.174 18.1107C106.255 18.7985 105.129 19.1478 103.794 19.1478C102.712 19.1478 101.749 18.9076 100.896 18.4382C100.043 17.9579 99.3756 17.2811 98.8944 16.4076C98.4131 15.5343 98.1725 14.53 98.1725 13.3837C98.1725 12.2375 98.4023 11.2112 98.8834 10.3379C99.3538 9.46451 100.021 8.78766 100.863 8.31824C101.716 7.84882 102.69 7.60864 103.794 7.60864C104.899 7.60864 105.818 7.8379 106.66 8.29641C107.503 8.75492 108.158 9.39901 108.618 10.2396C109.088 11.0802 109.318 12.0409 109.318 13.1326C109.318 13.5365 109.285 13.8967 109.241 14.2243H109.23ZM106.376 12.3248C106.364 11.5933 106.103 11.0147 105.588 10.5781C105.074 10.1414 104.451 9.92303 103.707 9.92303C102.963 9.92303 102.416 10.1304 101.935 10.5563C101.454 10.982 101.158 11.5715 101.06 12.3248H106.376Z" fill="#FBFCFA"/>
<path d="M64.8677 29.9122C65.3162 29.0388 65.9286 28.362 66.7052 27.8926C67.4818 27.4231 68.3458 27.1829 69.3084 27.1829C70.1396 27.1829 70.8724 27.3467 71.4959 27.6851C72.1194 28.0235 72.6225 28.4493 73.0052 28.9515V27.3576H75.86V38.5365H73.0052V36.899C72.6444 37.423 72.1412 37.8597 71.4959 38.1981C70.8506 38.5365 70.1178 38.7112 69.2865 38.7112C68.3458 38.7112 67.4818 38.471 66.7052 37.9907C65.9286 37.5103 65.3162 36.8226 64.8677 35.9383C64.4193 35.0541 64.1896 34.0388 64.1896 32.9034C64.1896 31.7681 64.4193 30.7746 64.8677 29.9012V29.9122ZM72.6006 31.1895C72.3271 30.6982 71.9662 30.3161 71.5068 30.0541C71.0474 29.7921 70.5553 29.6611 70.0303 29.6611C69.5052 29.6611 69.0239 29.7921 68.5755 30.0432C68.1271 30.2943 67.7661 30.6764 67.4927 31.1677C67.2193 31.6588 67.0771 32.2375 67.0771 32.9143C67.0771 33.5911 67.2193 34.1806 67.4927 34.6828C67.7661 35.185 68.1271 35.5781 68.5865 35.84C69.0349 36.1129 69.5162 36.244 70.0303 36.244C70.5443 36.244 71.0474 36.1129 71.5068 35.8509C71.9662 35.589 72.3271 35.2069 72.6006 34.7156C72.8741 34.2244 73.0052 33.6349 73.0052 32.9471C73.0052 32.2594 72.8741 31.6697 72.6006 31.1786V31.1895ZM72.6225 24.5629V26.5825L67.974 24.4647V22.1611L72.6225 24.5629Z" fill="#FBFCFA"/>
<path d="M86.2614 23.6238V38.5582H83.4287V23.6238H86.2614Z" fill="#FBFCFA"/>
<path d="M88.996 29.9121C89.4445 29.0388 90.057 28.3619 90.8335 27.8925C91.6102 27.423 92.4742 27.1829 93.4258 27.1829C94.2571 27.1829 94.9898 27.3467 95.6242 27.6851C96.2477 28.0235 96.7508 28.4493 97.1336 28.9514V27.3576H99.9883V38.5365H97.1336V36.8989C96.7727 37.4229 96.2696 37.8596 95.6242 38.1981C94.9789 38.5365 94.2461 38.7111 93.4148 38.7111C92.4742 38.7111 91.6102 38.471 90.8335 37.9906C90.057 37.5103 89.4445 36.8225 88.996 35.9382C88.5476 35.0539 88.3179 34.0387 88.3179 32.9034C88.3179 31.768 88.5476 30.7745 88.996 29.9012V29.9121ZM96.7289 31.1893C96.4554 30.6981 96.0946 30.316 95.6352 30.054C95.1758 29.792 94.6836 29.661 94.1586 29.661C93.6335 29.661 93.1523 29.792 92.7039 30.0431C92.2554 30.2942 91.8945 30.6763 91.621 31.1675C91.3476 31.6588 91.2055 32.2374 91.2055 32.9143C91.2055 33.5911 91.3476 34.1806 91.621 34.6828C91.8945 35.185 92.2664 35.5779 92.7149 35.84C93.1633 36.1129 93.6445 36.2439 94.1586 36.2439C94.6726 36.2439 95.1758 36.1129 95.6352 35.8509C96.0946 35.5889 96.4554 35.2068 96.7289 34.7155C97.0024 34.2242 97.1336 33.6347 97.1336 32.947C97.1336 32.2592 97.0024 31.6697 96.7289 31.1784V31.1893Z" fill="#FBFCFA"/>
<path d="M110.401 40.3921C110.401 41.6258 110.095 42.5209 109.482 43.0668C108.87 43.6126 107.994 43.8856 106.847 43.8856H105.588V41.4838H106.398C106.824 41.4838 107.131 41.3965 107.305 41.2327C107.481 41.069 107.568 40.7961 107.568 40.4139V27.3792H110.401V40.3921ZM107.743 25.567C107.415 25.2504 107.251 24.8574 107.251 24.388C107.251 23.9185 107.415 23.5255 107.743 23.209C108.071 22.8924 108.498 22.7395 109.012 22.7395C109.525 22.7395 109.92 22.9033 110.248 23.209C110.575 23.5255 110.729 23.9185 110.729 24.388C110.729 24.8574 110.565 25.2504 110.248 25.567C109.931 25.8835 109.515 26.0364 109.012 26.0364C108.508 26.0364 108.071 25.8835 107.743 25.567Z" fill="#FBFCFA"/>
<path d="M123.515 33.8094H115.334C115.399 34.6173 115.684 35.2505 116.187 35.709C116.689 36.1675 117.302 36.3968 118.024 36.3968C119.074 36.3968 119.818 35.9492 120.266 35.0431H123.318C122.99 36.1239 122.378 37.0081 121.459 37.6958C120.539 38.3837 119.414 38.733 118.079 38.733C116.996 38.733 116.034 38.4928 115.181 38.0234C114.328 37.5431 113.66 36.8661 113.179 35.9928C112.698 35.1195 112.457 34.1152 112.457 32.9688C112.457 31.8225 112.687 30.7964 113.168 29.9231C113.638 29.0496 114.305 28.3728 115.148 27.9034C116.001 27.434 116.974 27.1938 118.079 27.1938C119.184 27.1938 120.102 27.4231 120.945 27.8816C121.786 28.3401 122.443 28.9842 122.902 29.8248C123.373 30.6654 123.602 31.6261 123.602 32.7178C123.602 33.1217 123.569 33.4819 123.526 33.8094H123.515ZM120.661 31.91C120.649 31.1785 120.386 30.5999 119.872 30.1632C119.359 29.7266 118.735 29.5082 117.991 29.5082C117.248 29.5082 116.701 29.7156 116.219 30.1413C115.738 30.5672 115.442 31.1567 115.345 31.91H120.661Z" fill="#FBFCFA"/>
<path d="M136.236 27.3686V38.5475H133.38V37.1392C133.02 37.6196 132.539 38.0016 131.959 38.2746C131.379 38.5475 130.733 38.6893 130.045 38.6893C129.17 38.6893 128.393 38.5038 127.726 38.1326C127.048 37.7614 126.523 37.2156 126.14 36.4951C125.758 35.7746 125.56 34.9231 125.56 33.9187V27.3577H128.393V33.5148C128.393 34.399 128.612 35.0869 129.06 35.5671C129.509 36.0475 130.11 36.2877 130.876 36.2877C131.642 36.2877 132.276 36.0475 132.713 35.5671C133.162 35.0869 133.38 34.41 133.38 33.5148V27.3577H136.236V27.3686Z" fill="#FBFCFA"/>
<path d="M148.464 28.4708C149.284 29.3114 149.7 30.4905 149.7 31.997V38.558H146.867V32.379C146.867 31.4948 146.648 30.8071 146.2 30.3267C145.751 29.8463 145.15 29.6061 144.384 29.6061C143.618 29.6061 142.984 29.8463 142.536 30.3267C142.087 30.8071 141.857 31.4839 141.857 32.379V38.558H139.024V27.3791H141.857V28.7765C142.24 28.2962 142.721 27.914 143.301 27.6411C143.891 27.3682 144.527 27.2263 145.237 27.2263C146.571 27.2263 147.644 27.652 148.464 28.4926V28.4708Z" fill="#FBFCFA"/>
<path d="M162.715 33.8094H154.524C154.588 34.6173 154.874 35.2505 155.376 35.709C155.868 36.1675 156.492 36.3968 157.214 36.3968C158.264 36.3968 159.008 35.9492 159.456 35.0431H162.508C162.179 36.1239 161.566 37.0081 160.648 37.6958C159.729 38.3837 158.602 38.733 157.268 38.733C156.185 38.733 155.224 38.4928 154.369 38.0234C153.517 37.5431 152.849 36.8661 152.368 35.9928C151.887 35.1195 151.647 34.1152 151.647 32.9688C151.647 31.8225 151.887 30.7964 152.358 29.9231C152.828 29.0496 153.495 28.3728 154.337 27.9034C155.191 27.434 156.164 27.1938 157.268 27.1938C158.373 27.1938 159.281 27.4231 160.123 27.8816C160.965 28.3401 161.622 28.9842 162.081 29.8248C162.54 30.6654 162.781 31.6261 162.781 32.7178C162.781 33.1217 162.759 33.4819 162.705 33.8094H162.715ZM159.861 31.91C159.849 31.1785 159.588 30.5999 159.073 30.1632C158.559 29.7266 157.935 29.5082 157.192 29.5082C156.492 29.5082 155.901 29.7156 155.419 30.1413C154.938 30.5672 154.644 31.1567 154.545 31.91H159.861Z" fill="#FBFCFA"/>
<path d="M166.675 38.2417C165.953 37.9142 165.373 37.4667 164.946 36.899C164.52 36.3312 164.29 35.709 164.246 35.0213H167.102C167.156 35.447 167.363 35.8073 167.736 36.0911C168.107 36.375 168.567 36.5168 169.125 36.5168C169.683 36.5168 170.087 36.4077 170.393 36.1893C170.7 35.971 170.842 35.6981 170.842 35.3597C170.842 34.9994 170.656 34.7265 170.284 34.5409C169.912 34.3553 169.322 34.1588 168.512 33.9514C167.682 33.7439 166.992 33.5365 166.456 33.3291C165.92 33.1108 165.46 32.7833 165.078 32.3357C164.695 31.8881 164.498 31.2876 164.498 30.5453C164.498 29.9231 164.673 29.3663 165.035 28.8532C165.395 28.3401 165.898 27.9361 166.566 27.6414C167.233 27.3466 168.02 27.1938 168.917 27.1938C170.252 27.1938 171.313 27.5322 172.11 28.1981C172.909 28.8641 173.347 29.7593 173.423 30.8946H170.71C170.667 30.447 170.481 30.0977 170.153 29.8357C169.825 29.5737 169.376 29.4427 168.829 29.4427C168.316 29.4427 167.922 29.5409 167.649 29.7266C167.375 29.9122 167.233 30.1741 167.233 30.5126C167.233 30.8946 167.419 31.1785 167.802 31.375C168.184 31.5714 168.764 31.768 169.562 31.9754C170.372 32.172 171.039 32.3902 171.564 32.5977C172.089 32.8051 172.549 33.1435 172.931 33.6021C173.314 34.0605 173.511 34.65 173.533 35.3924C173.533 36.0365 173.357 36.615 172.997 37.1282C172.636 37.6413 172.133 38.0343 171.466 38.3291C170.799 38.6238 170.022 38.7657 169.136 38.7657C168.25 38.7657 167.396 38.602 166.663 38.2744L166.675 38.2417Z" fill="#FBFCFA"/>
<path d="M177.689 38.2417C176.967 37.9142 176.387 37.4667 175.96 36.899C175.534 36.3312 175.304 35.709 175.26 35.0213H178.116C178.17 35.447 178.378 35.8073 178.75 36.0911C179.121 36.375 179.581 36.5168 180.138 36.5168C180.697 36.5168 181.101 36.4077 181.407 36.1893C181.714 35.971 181.856 35.6981 181.856 35.3597C181.856 34.9994 181.67 34.7265 181.298 34.5409C180.927 34.3553 180.336 34.1588 179.527 33.9514C178.695 33.7439 178.006 33.5365 177.47 33.3291C176.934 33.1108 176.474 32.7833 176.091 32.3357C175.709 31.8881 175.513 31.2876 175.513 30.5453C175.513 29.9231 175.687 29.3663 176.048 28.8532C176.409 28.3401 176.913 27.9361 177.58 27.6414C178.247 27.3466 179.034 27.1938 179.931 27.1938C181.265 27.1938 182.327 27.5322 183.125 28.1981C183.924 28.8641 184.361 29.7593 184.437 30.8946H181.725C181.681 30.447 181.495 30.0977 181.167 29.8357C180.838 29.5737 180.39 29.4427 179.844 29.4427C179.33 29.4427 178.936 29.5409 178.663 29.7266C178.389 29.9122 178.247 30.1741 178.247 30.5126C178.247 30.8946 178.433 31.1785 178.816 31.375C179.198 31.5714 179.778 31.768 180.577 31.9754C181.386 32.172 182.053 32.3902 182.578 32.5977C183.103 32.8051 183.562 33.1435 183.945 33.6021C184.328 34.0605 184.525 34.65 184.547 35.3924C184.547 36.0365 184.371 36.615 184.011 37.1282C183.65 37.6413 183.147 38.0343 182.48 38.3291C181.813 38.6238 181.036 38.7657 180.15 38.7657C179.264 38.7657 178.411 38.602 177.678 38.2744L177.689 38.2417Z" fill="#FBFCFA"/>
<path d="M197.223 33.8094H189.031C189.097 34.6173 189.381 35.2505 189.884 35.709C190.377 36.1675 190.999 36.3968 191.722 36.3968C192.772 36.3968 193.515 35.9492 193.964 35.0431H197.015C196.688 36.1239 196.075 37.0081 195.156 37.6958C194.238 38.3837 193.111 38.733 191.776 38.733C190.694 38.733 189.731 38.4928 188.878 38.0234C188.025 37.5431 187.358 36.8661 186.877 35.9928C186.395 35.1195 186.154 34.1152 186.154 32.9688C186.154 31.8225 186.395 30.7964 186.865 29.9231C187.335 29.0496 188.002 28.3728 188.845 27.9034C189.698 27.434 190.672 27.1938 191.776 27.1938C192.881 27.1938 193.789 27.4231 194.631 27.8816C195.473 28.3401 196.129 28.9842 196.589 29.8248C197.048 30.6654 197.289 31.6261 197.289 32.7178C197.289 33.1217 197.268 33.4819 197.212 33.8094H197.223ZM194.369 31.91C194.358 31.1785 194.095 30.5999 193.581 30.1632C193.067 29.7266 192.444 29.5082 191.699 29.5082C190.999 29.5082 190.409 29.7156 189.928 30.1413C189.447 30.5672 189.151 31.1567 189.052 31.91H194.369Z" fill="#FBFCFA"/>
<path d="M32.1862 43.1652C22.4299 43.1652 14.4892 35.1303 14.4892 25.2615H21.3908C21.3908 31.3312 26.2362 36.2766 32.1862 36.2766C38.1363 36.2766 42.9815 31.3312 42.9815 25.2615V8.86426H49.8831V25.2615C49.8831 35.1412 41.9426 43.1652 32.1862 43.1652Z" fill="#86C48F"/>
<path d="M30.808 21.539L17.7705 9.41036L5.06099 21.1788L0.357849 16.1243L17.7814 0L35.5221 16.5063L30.808 21.539Z" fill="#86C48F"/>
</svg>
