<svg width="700" height="523" viewBox="0 0 700 523" fill="none" xmlns="http://www.w3.org/2000/svg">
<g clip-path="url(#clip0_464_1781)">
<path d="M355.154 490.712C490.38 490.712 600.001 380.974 600.001 245.606C600.001 110.238 490.38 0.5 355.154 0.5C219.929 0.5 110.307 110.238 110.307 245.606C110.307 380.974 219.929 490.712 355.154 490.712Z" fill="#E6E6E6"/>
<path d="M579.792 78.6096C579.194 79.9878 578.568 81.3512 577.915 82.6993C524.618 84.8419 440.339 87.3952 383.082 84.8777C382.736 84.2013 382.397 83.5212 382.064 82.8372C378.468 75.4415 384.358 66.9283 392.524 67.8397L392.715 67.8611C392.715 67.8611 403.417 35.7208 431.956 44.6486C431.956 44.6486 496.169 -56.004 558.598 50.5769C558.598 50.5769 558.952 50.5129 559.61 50.4545C574.73 49.1145 585.843 64.6744 579.792 78.6096Z" fill="white"/>
<path d="M620.475 230.966H588.72V506.187H620.475V230.966Z" fill="#2D334A"/>
<path d="M702.367 511.11C700.394 499.83 697.966 488.506 693.107 478.14C688.247 467.773 680.728 458.333 670.6 453.01C654.717 444.663 633.411 448.441 621.358 461.741C609.305 475.042 607.62 496.636 617.462 511.65" fill="#E6E6E6"/>
<path d="M620.683 512.474C619.041 491.75 607.761 471.659 590.048 460.806C572.335 449.954 548.45 449.291 530.934 460.459C513.417 471.627 503.877 494.64 509.747 514.581" fill="#E6E6E6"/>
<path d="M753 511.965C749.395 498.187 737.305 487.022 723.297 484.533C716.431 483.312 708.619 484.352 703.842 489.436C697.983 495.671 698.622 505.395 699.636 513.894" fill="#E6E6E6"/>
<path d="M355.154 318.385C414.69 318.385 462.954 270.07 462.954 210.471C462.954 150.872 414.69 102.558 355.154 102.558C295.618 102.558 247.354 150.872 247.354 210.471C247.354 270.07 295.618 318.385 355.154 318.385Z" fill="#FFD803"/>
<path d="M752.854 512.243C752.854 516.863 424.825 522.5 273.678 522.5C122.53 522.5 0 518.755 0 514.135C0 509.515 122.53 505.769 273.678 505.769C424.826 505.769 752.854 507.623 752.854 512.243Z" fill="#E6E6E6"/>
<path d="M58.0605 426.702L65.1813 454.74L135.112 466.87V413.413L58.0605 409.986V426.702Z" fill="#2D334A"/>
<path d="M486.352 396.183H129.526V479.836H486.352V396.183Z" fill="#2D334A"/>
<path d="M147.075 468.962C147.075 492.524 138.022 511.625 107.382 511.625C80.9192 511.625 71.8662 492.524 71.8662 468.962C71.8662 445.399 85.4594 426.298 107.382 426.298C129.304 426.298 147.075 445.399 147.075 468.962Z" fill="#2D334A"/>
<path d="M96.9358 499.913C106.166 499.913 113.649 485.119 113.649 466.87C113.649 448.621 106.166 433.827 96.9358 433.827C87.7054 433.827 80.2227 448.621 80.2227 466.87C80.2227 485.119 87.7054 499.913 96.9358 499.913Z" fill="white"/>
<path d="M96.9365 475.654C103.398 475.654 108.636 470.41 108.636 463.942C108.636 457.474 103.398 452.231 96.9365 452.231C90.4752 452.231 85.2373 457.474 85.2373 463.942C85.2373 470.41 90.4752 475.654 96.9365 475.654Z" fill="#2D334A"/>
<path d="M481.338 514.135C507.645 514.135 528.971 490.165 528.971 460.596C528.971 431.028 507.645 407.058 481.338 407.058C455.032 407.058 433.706 431.028 433.706 460.596C433.706 490.165 455.032 514.135 481.338 514.135Z" fill="#2D334A"/>
<path d="M255.711 505.769C276.018 505.769 292.48 487.792 292.48 465.615C292.48 443.439 276.018 425.462 255.711 425.462C235.404 425.462 218.942 443.439 218.942 465.615C218.942 487.792 235.404 505.769 255.711 505.769Z" fill="#2D334A"/>
<path d="M322.563 522.5C348.87 522.5 370.196 498.53 370.196 468.962C370.196 439.393 348.87 415.423 322.563 415.423C296.256 415.423 274.931 439.393 274.931 468.962C274.931 498.53 296.256 522.5 322.563 522.5Z" fill="#2D334A"/>
<path d="M313.789 504.933C330.173 504.933 343.455 487.33 343.455 465.615C343.455 443.901 330.173 426.298 313.789 426.298C297.405 426.298 284.123 443.901 284.123 465.615C284.123 487.33 297.405 504.933 313.789 504.933Z" fill="white"/>
<path d="M313.372 476.49C322.141 476.49 329.249 469.374 329.249 460.596C329.249 451.818 322.141 444.702 313.372 444.702C304.603 444.702 297.494 451.818 297.494 460.596C297.494 469.374 304.603 476.49 313.372 476.49Z" fill="#2D334A"/>
<path d="M40.5293 442.049V378.386C40.5293 372.797 45.0554 368.266 50.6387 368.266H64.132C64.132 368.266 75.209 301.654 96.1005 292.452C116.992 283.25 304.179 241.423 406.965 282.413L441.227 345.154C441.227 345.154 518.943 345.154 527.299 362.721C527.299 362.721 564.068 353.519 567.411 393.673L558.219 440.519L554.876 457.25L373.538 451.394L340.112 447.211C340.112 447.211 335.098 408.731 310.864 408.731C286.63 408.731 276.602 414.586 276.602 414.586C276.602 414.586 258.218 444.702 264.067 474.817H127.904C127.904 474.817 122.006 427.971 94.4291 427.135C81.8722 426.754 69.3595 422.115 65.1812 454.74L50.215 452.963C44.6904 452.307 40.5293 447.618 40.5293 442.049Z" fill="#E3F6F5"/>
<path d="M434.832 343.899H271.339C265.951 343.899 261.416 340.034 260.555 334.71L254.4 296.619C253.958 293.882 254.649 291.17 256.346 288.982C258.041 286.797 260.491 285.456 263.245 285.208C352.101 277.182 388.361 282.994 399.827 285.864C406.866 287.627 412.786 292.668 415.662 299.351L434.832 343.899Z" fill="white"/>
<path d="M198.723 351.549C197.41 351.549 196.127 351.522 194.878 351.465C192.774 351.368 190.81 350.376 189.49 348.742C188.176 347.117 187.619 345.003 187.961 342.94L194.585 302.906C195.111 299.731 197.706 297.232 200.895 296.831L232.718 292.821C236.479 292.346 239.948 294.785 240.778 298.491L249.338 336.716C249.767 338.631 249.425 340.597 248.375 342.252C247.327 343.905 245.699 345.049 243.791 345.474C233.243 347.824 214.095 351.549 198.723 351.549Z" fill="white"/>
<path d="M107.02 359.191C105.032 359.191 103.145 358.284 101.903 356.711C100.566 355.019 100.152 352.78 100.793 350.72C105.919 334.267 115.361 306.291 121.001 303.781C126.618 301.282 155.574 299.057 172.335 297.953C174.338 297.823 176.258 298.601 177.602 300.093C178.948 301.586 179.526 303.581 179.189 305.565L171.691 349.688C171.185 352.669 168.727 354.897 165.714 355.108L107.476 359.175C107.324 359.186 107.172 359.191 107.02 359.191Z" fill="white"/>
<path d="M164.624 460.596V377.645L177.036 359.375H255.883L244.847 381.125L247.392 460.596H164.624Z" stroke="#2D334A" stroke-miterlimit="10" stroke-linecap="round"/>
<path d="M139.339 460.596H164.625" stroke="#2D334A" stroke-miterlimit="10" stroke-linecap="round"/>
<path d="M85.4502 426.702C85.4502 426.702 90.2511 370.253 98.6077 367.323L168.803 361.885" stroke="#2D334A" stroke-miterlimit="10" stroke-linecap="round"/>
<path d="M102.786 386.981H113.96" stroke="#2D334A" stroke-miterlimit="10" stroke-linecap="round"/>
<path d="M187.187 377.038H172.791V383.635H187.187V377.038Z" stroke="#2D334A" stroke-miterlimit="10" stroke-linecap="round"/>
<path d="M255.883 359.375L403.204 353.938C403.204 353.938 421.089 363.543 425.099 394.293L524.374 398.274C524.374 398.274 533.566 375.688 527.299 362.721" stroke="#2D334A" stroke-miterlimit="10" stroke-linecap="round"/>
<path d="M396.101 415.423C406.716 415.423 415.321 406.809 415.321 396.183C415.321 385.557 406.716 376.942 396.101 376.942C385.486 376.942 376.881 385.557 376.881 396.183C376.881 406.809 385.486 415.423 396.101 415.423Z" fill="#2D334A"/>
<path d="M396.102 410.404C403.948 410.404 410.308 404.037 410.308 396.183C410.308 388.329 403.948 381.962 396.102 381.962C388.256 381.962 381.896 388.329 381.896 396.183C381.896 404.037 388.256 410.404 396.102 410.404Z" fill="white"/>
<path d="M554.458 418.351C562.765 418.351 569.5 410.111 569.5 399.947C569.5 389.783 562.765 381.543 554.458 381.543C546.15 381.543 539.416 389.783 539.416 399.947C539.416 410.111 546.15 418.351 554.458 418.351Z" fill="#2D334A"/>
<path d="M553.205 415.423C558.743 415.423 563.233 408.681 563.233 400.365C563.233 392.049 558.743 385.308 553.205 385.308C547.666 385.308 543.177 392.049 543.177 400.365C543.177 408.681 547.666 415.423 553.205 415.423Z" fill="white"/>
<path d="M393.176 432.572C395.945 432.572 398.19 429.389 398.19 425.462C398.19 421.534 395.945 418.351 393.176 418.351C390.407 418.351 388.162 421.534 388.162 425.462C388.162 429.389 390.407 432.572 393.176 432.572Z" fill="white"/>
<path d="M551.534 438.846C553.841 438.846 555.712 435.85 555.712 432.154C555.712 428.458 553.841 425.462 551.534 425.462C549.226 425.462 547.355 428.458 547.355 432.154C547.355 435.85 549.226 438.846 551.534 438.846Z" fill="white"/>
<path d="M536.492 432.99H415.321L417.828 415.898C417.828 406.857 425.149 399.529 434.18 399.529H519.47C528.871 399.529 536.492 407.157 536.492 416.568V432.99Z" fill="#2D334A"/>
<path d="M593.278 264.721C593.278 264.721 547.773 258.539 563.232 202.508H569.5C569.5 202.508 561.979 230.966 591.227 245.188L593.278 264.721Z" fill="#2D334A"/>
<path d="M617.968 283.668C617.968 283.668 647.216 243.514 647.216 227.62H639.137C639.137 227.62 631.222 251.88 613.313 255.644L617.968 283.668Z" fill="#2D334A"/>
<path d="M541.971 224.492C540.399 236.743 527.699 245.775 515.376 245.159C503.054 244.543 492.065 235.728 486.709 224.602C481.353 213.475 481.03 200.446 483.501 188.345C471.103 171.639 463.918 151.113 463.188 130.314C462.787 118.907 464.559 106.784 471.763 97.9365C477.538 90.8442 486.588 86.5421 495.728 86.5443C504.868 86.5466 513.916 90.8533 519.687 97.9484L518.121 97.7608C516.703 86.313 515.284 74.7503 516.435 63.2726C517.586 51.7949 521.546 40.2439 529.568 31.9634C537.827 23.4393 549.481 19.1845 560.932 16.0823C577.571 11.5741 595.231 8.94033 612.008 12.9024C628.786 16.8645 644.54 28.5053 649.567 45.0115C662.802 44.5308 676.53 46.0067 688.073 52.5061C699.616 59.0055 708.53 71.3593 708.007 84.6067C707.484 97.854 695.41 110.43 682.255 108.896C690.796 114.37 699.183 120.427 705.318 128.511C711.453 136.595 715.131 147.039 713.181 157.002C711.232 166.964 702.716 175.865 692.583 176.3L690.364 177.438C702.56 188.847 702.129 209.785 692.167 223.192C682.206 236.599 665.062 243.12 648.396 244.056C631.731 244.992 615.219 241.062 598.989 237.16C580.01 232.596 561.031 228.033 542.052 223.469L541.971 224.492Z" fill="#E3F6F5"/>
<path d="M294.055 81.6599C293.775 82.3056 293.482 82.9444 293.176 83.576C268.206 84.5798 228.722 85.776 201.897 84.5965C201.735 84.2797 201.576 83.961 201.42 83.6406C199.735 80.1757 202.494 76.1873 206.32 76.6143L206.41 76.6243C206.41 76.6243 211.424 61.5666 224.794 65.7493C224.794 65.7493 254.878 18.5937 284.126 68.5267C284.126 68.5267 284.291 68.4967 284.6 68.4693C291.683 67.8416 296.89 75.1313 294.055 81.6599Z" fill="white"/>
<path d="M271.435 209.946C270.836 211.324 270.21 212.688 269.558 214.036C216.261 216.178 131.982 218.732 74.7249 216.214C74.3788 215.538 74.0395 214.858 73.7069 214.174C70.1104 206.778 76.0001 198.265 84.1663 199.176L84.3571 199.198C84.3571 199.198 95.0593 167.057 123.598 175.985C123.598 175.985 187.811 75.3326 250.24 181.913C250.24 181.913 250.594 181.849 251.253 181.791C266.372 180.451 277.485 196.011 271.435 209.946Z" fill="white"/>
</g>
<defs>
<clipPath id="clip0_464_1781">
<rect width="753" height="522" fill="white" transform="translate(0 0.5)"/>
</clipPath>
</defs>
</svg>
