<svg width="580" height="338" viewBox="0 0 580 338" fill="none" xmlns="http://www.w3.org/2000/svg">
<g clip-path="url(#clip0_689_4416)">
<path d="M158.36 285.32C174.105 285.32 186.87 272.546 186.87 256.788C186.87 241.03 174.105 228.256 158.36 228.256C142.614 228.256 129.85 241.03 129.85 256.788C129.85 272.546 142.614 285.32 158.36 285.32Z" fill="#FFD803"/>
<path opacity="0.2" d="M137.308 237.731C134.649 243.956 134.288 250.925 136.29 257.392C138.293 263.859 142.528 269.403 148.238 273.033C153.949 276.664 160.763 278.143 167.464 277.208C174.164 276.273 180.314 272.983 184.814 267.928C183.19 271.732 180.759 275.136 177.689 277.906C174.619 280.676 170.984 282.744 167.036 283.969C163.088 285.193 158.921 285.544 154.824 284.997C150.727 284.449 146.798 283.017 143.309 280.799C139.82 278.582 136.855 275.631 134.619 272.153C132.382 268.674 130.928 264.751 130.357 260.654C129.786 256.557 130.112 252.385 131.313 248.427C132.513 244.469 134.559 240.819 137.308 237.731Z" fill="black"/>
<path d="M158.438 256.787H158.516L159.926 337.681H156.949L158.438 256.787Z" fill="#2D334A"/>
<path d="M100.675 232.112C132.421 232.112 158.156 206.357 158.156 174.586C158.156 142.815 132.421 117.06 100.675 117.06C68.9287 117.06 43.1934 142.815 43.1934 174.586C43.1934 206.357 68.9287 232.112 100.675 232.112Z" fill="#FFD803"/>
<path opacity="0.2" d="M58.2313 136.163C52.8696 148.715 52.1422 162.766 56.1792 175.805C60.2162 188.844 68.7545 200.021 80.2684 207.34C91.7822 214.659 105.521 217.642 119.031 215.756C132.54 213.871 144.939 207.239 154.013 197.047C150.737 204.715 145.835 211.58 139.646 217.164C133.456 222.748 126.128 226.919 118.168 229.388C110.208 231.856 101.807 232.563 93.5469 231.46C85.2868 230.356 77.3652 227.469 70.3309 222.998C63.2965 218.526 57.3177 212.578 52.8086 205.564C48.2994 198.551 45.3679 190.64 44.2169 182.381C43.066 174.121 43.7232 165.709 46.1431 157.729C48.563 149.748 52.6876 142.39 58.2313 136.163Z" fill="black"/>
<path d="M100.832 174.586H100.99L103.833 337.681H97.832L100.832 174.586Z" fill="#2D334A"/>
<path d="M479.652 253.264H216.182V331.428H479.652V253.264Z" fill="#F0F0F0"/>
<path d="M363.277 269.418H332.557V331.428H363.277V269.418Z" fill="#CACACA"/>
<path d="M464.292 161.03H231.543V232.941H464.292V161.03Z" fill="#F0F0F0"/>
<path d="M487.887 165.46H207.945C207.477 165.46 207.021 165.32 206.633 165.058C206.246 164.796 205.946 164.425 205.771 163.991C205.597 163.557 205.556 163.081 205.654 162.623C205.752 162.166 205.984 161.748 206.321 161.424L282.83 87.8271V55.7697C282.83 55.148 283.077 54.552 283.517 54.1124C283.956 53.6728 284.551 53.4255 285.173 53.4248H300.273C300.894 53.4255 301.49 53.6728 301.929 54.1124C302.368 54.552 302.615 55.148 302.616 55.7697V68.794L308.395 63.235C317.851 54.1382 330.398 48.9604 343.512 48.7422C356.627 48.5239 369.339 53.2814 379.092 62.0585L489.454 161.371C489.807 161.688 490.055 162.105 490.165 162.566C490.276 163.027 490.245 163.511 490.075 163.954C489.905 164.397 489.605 164.778 489.215 165.047C488.824 165.316 488.361 165.46 487.887 165.46Z" fill="#CACACA"/>
<path d="M292.984 179.269C294.933 179.269 296.863 179.653 298.663 180.399C300.464 181.145 302.1 182.239 303.478 183.618C304.856 184.998 305.949 186.635 306.694 188.437C307.44 190.238 307.824 192.17 307.824 194.12V214.182H278.145V194.12C278.145 190.181 279.708 186.404 282.491 183.618C285.274 180.833 289.049 179.269 292.984 179.269Z" fill="#FFFFFE"/>
<path d="M347.918 179.529C349.867 179.529 351.796 179.913 353.597 180.66C355.397 181.406 357.033 182.5 358.411 183.879C359.789 185.258 360.882 186.895 361.628 188.697C362.374 190.499 362.758 192.43 362.758 194.38V214.442H333.078V194.38C333.078 192.43 333.462 190.499 334.208 188.697C334.954 186.895 336.047 185.258 337.425 183.879C338.803 182.5 340.438 181.406 342.239 180.66C344.039 179.913 345.969 179.529 347.918 179.529Z" fill="#FFFFFE"/>
<path d="M402.849 179.79C404.798 179.79 406.728 180.174 408.528 180.92C410.329 181.667 411.965 182.76 413.343 184.14C414.721 185.519 415.814 187.156 416.56 188.958C417.305 190.759 417.689 192.691 417.689 194.641V214.703H388.01V194.641C388.01 192.691 388.394 190.759 389.139 188.958C389.885 187.156 390.978 185.519 392.356 184.14C393.734 182.76 395.37 181.667 397.171 180.92C398.971 180.174 400.901 179.79 402.849 179.79Z" fill="#FFFFFE"/>
<path d="M424.719 268.636C428.654 268.636 432.429 270.201 435.212 272.986C437.995 275.771 439.558 279.548 439.558 283.487V303.549H409.879V283.487C409.879 279.548 411.442 275.771 414.225 272.986C417.008 270.201 420.783 268.636 424.719 268.636Z" fill="#FFFFFE"/>
<path d="M277.885 268.636C281.82 268.636 285.595 270.201 288.378 272.986C291.161 275.771 292.724 279.548 292.724 283.487V303.549H263.045V283.487C263.045 281.537 263.429 279.606 264.175 277.804C264.92 276.002 266.013 274.365 267.391 272.986C268.769 271.607 270.405 270.513 272.206 269.766C274.006 269.02 275.936 268.636 277.885 268.636Z" fill="#FFFFFE"/>
<path d="M518.144 254.484L468.72 232.598C468.454 232.481 468.167 232.42 467.877 232.42H232.33C232.061 232.42 231.795 232.472 231.546 232.573L177.748 254.459C177.3 254.641 176.93 254.973 176.7 255.399C176.47 255.824 176.395 256.316 176.488 256.79C176.581 257.265 176.835 257.692 177.208 257.999C177.581 258.307 178.049 258.475 178.532 258.475H192.49V330.385H190.928V337.681H504.905V330.385H502.302V258.475H517.301C517.779 258.475 518.242 258.31 518.613 258.009C518.984 257.708 519.24 257.289 519.339 256.821C519.438 256.354 519.373 255.866 519.155 255.441C518.938 255.015 518.581 254.678 518.144 254.484ZM498.136 330.385H196.656V258.475H498.136V330.385Z" fill="#CACACA"/>
<path d="M311.468 211.316H273.457V217.569H311.468V211.316Z" fill="#CACACA"/>
<path d="M367.182 211.316H329.172V217.569H367.182V211.316Z" fill="#CACACA"/>
<path d="M422.897 211.316H384.887V217.569H422.897V211.316Z" fill="#CACACA"/>
<path d="M443.723 301.465H405.713V307.718H443.723V301.465Z" fill="#CACACA"/>
<path d="M296.368 301.465H258.357V307.718H296.368V301.465Z" fill="#CACACA"/>
<path d="M579.362 338H0.638064C0.468839 338 0.306544 337.933 0.186884 337.813C0.0672239 337.693 0 337.531 0 337.361C0 337.192 0.0672239 337.03 0.186884 336.91C0.306544 336.79 0.468839 336.723 0.638064 336.723H579.362C579.531 336.723 579.693 336.79 579.813 336.91C579.933 337.03 580 337.192 580 337.361C580 337.531 579.933 337.693 579.813 337.813C579.693 337.933 579.531 338 579.362 338Z" fill="#2D334A"/>
<path d="M426.219 284.143L426.039 281.899C425.806 281.019 423.608 283.782 423.346 283.842C422.652 283.695 421.939 283.663 421.235 283.746C421.329 279.72 420.71 281.545 418.912 283.363C413.12 286.301 415.244 295.584 421.839 295.631C427.853 295.981 430.844 287.801 426.219 284.143Z" fill="#2D334A"/>
<path d="M427.033 293.25C429.432 293.212 432.449 301.635 426.766 301.679C423.825 301.701 418.618 302.275 418.618 302.275C418.618 302.275 414.571 296.197 416.376 292.415L427.033 293.25Z" fill="#2D334A"/>
<path d="M421.758 297.702V302.065H423.796L425.414 297.622" fill="#2D334A"/>
<path d="M423.797 302.145C423.755 302.099 421.592 302.244 421.678 302.066L421.678 297.701C422.039 297.117 421.75 302.043 421.837 301.986H423.741C423.835 301.931 425.242 297.461 425.441 297.547C425.451 297.551 425.46 297.556 425.468 297.563C425.476 297.57 425.482 297.579 425.486 297.588C425.491 297.598 425.493 297.608 425.494 297.618C425.494 297.629 425.493 297.639 425.489 297.649C425.413 297.703 423.949 302.173 423.797 302.145Z" fill="#FFFFFE"/>
<path d="M428.712 301.798C428.77 302.515 425.316 302.516 425.374 301.798C425.316 301.081 428.77 301.081 428.712 301.798Z" fill="#2D334A"/>
<path d="M426.21 301.321C426.01 301.37 425.337 298.059 427.385 297.591C425.391 298.654 426.419 301.112 426.21 301.321Z" fill="#FFFFFE"/>
<path d="M429.04 300.594C429.028 300.578 429.02 300.561 429.011 300.544L428.75 300.554L429.04 300.594Z" fill="#2D334A"/>
<path d="M437.702 298.072C436.528 296.324 434.26 297.119 433.372 298.718C432.319 300.647 427.821 299.212 428.382 301.803C431.191 301.21 439.503 303.239 437.702 298.072Z" fill="#2D334A"/>
<path d="M421.492 295.057C419.647 295.417 416.394 293.13 416.307 292.456C416.297 292.438 416.294 292.417 416.299 292.397C416.304 292.377 416.317 292.36 416.335 292.349C416.352 292.338 416.374 292.334 416.394 292.339C416.414 292.344 416.431 292.356 416.443 292.373C417.07 293.265 417.934 293.964 418.938 294.39C420.492 295.178 423.331 295.196 427.101 293.21C425.457 294.372 423.504 295.015 421.492 295.057Z" fill="#FFFFFE"/>
<path d="M421.837 291.019C421.421 291.149 421.059 290.143 421.44 290.462C421.44 290.568 421.482 290.669 421.557 290.744C421.631 290.818 421.732 290.86 421.837 290.86C422.177 290.894 422.161 290.523 422.314 290.383C422.579 290.596 422.125 291.06 421.837 291.019Z" fill="#FFFFFE"/>
<path d="M421.082 301.812C420.924 301.833 419.809 297.826 419.734 297.765C419.728 297.745 419.73 297.723 419.739 297.705C419.749 297.686 419.766 297.672 419.786 297.665C419.994 297.582 421.063 301.655 421.158 301.708C421.161 301.72 421.162 301.733 421.16 301.745C421.158 301.757 421.153 301.769 421.146 301.779C421.138 301.789 421.129 301.797 421.118 301.803C421.107 301.809 421.094 301.812 421.082 301.812Z" fill="#FFFFFE"/>
<path d="M424.421 302.355C424.479 303.072 421.025 303.072 421.083 302.355C421.025 301.638 424.479 301.638 424.421 302.355Z" fill="#2D334A"/>
<path d="M421.718 302.276C421.775 302.993 418.322 302.993 418.38 302.275C418.322 301.558 421.776 301.558 421.718 302.276Z" fill="#2D334A"/>
<path d="M422.512 289.468C422.533 289.784 421.22 289.784 421.24 289.468C421.22 289.152 422.533 289.152 422.512 289.468Z" fill="#FFFFFE"/>
<path d="M417.602 289.486C417.784 289.269 418.012 289.094 418.269 288.974C418.526 288.855 418.806 288.793 419.09 288.793C419.373 288.793 419.653 288.855 419.911 288.974C420.168 289.094 420.395 289.269 420.578 289.486C422.628 287.583 419.596 284.404 417.602 286.366C417.391 286.568 417.224 286.81 417.109 287.078C416.995 287.346 416.936 287.635 416.936 287.926C416.936 288.218 416.995 288.506 417.109 288.774C417.224 289.042 417.391 289.285 417.602 289.486Z" fill="#FFFFFE"/>
<path d="M423.42 289.486C423.603 289.269 423.83 289.094 424.087 288.974C424.344 288.855 424.625 288.793 424.908 288.793C425.192 288.793 425.472 288.855 425.729 288.974C425.986 289.094 426.214 289.269 426.396 289.486C428.447 287.583 425.414 284.404 423.42 286.366C423.209 286.568 423.042 286.81 422.927 287.078C422.813 287.346 422.754 287.635 422.754 287.926C422.754 288.218 422.813 288.506 422.927 288.774C423.042 289.042 423.21 289.285 423.42 289.486Z" fill="#FFFFFE"/>
<path d="M418.143 287.394C418.336 287.399 418.52 287.48 418.655 287.618C418.789 287.757 418.865 287.943 418.865 288.136C418.865 288.329 418.789 288.515 418.655 288.653C418.52 288.792 418.336 288.872 418.143 288.878C417.95 288.872 417.767 288.792 417.632 288.653C417.497 288.515 417.422 288.329 417.422 288.136C417.422 287.943 417.497 287.757 417.632 287.618C417.767 287.48 417.95 287.399 418.143 287.394Z" fill="#2D334A"/>
<path d="M423.962 287.394C424.155 287.399 424.338 287.48 424.473 287.618C424.608 287.757 424.683 287.943 424.683 288.136C424.683 288.329 424.608 288.515 424.473 288.653C424.338 288.792 424.155 288.872 423.962 288.878C423.768 288.872 423.585 288.792 423.45 288.653C423.316 288.515 423.24 288.329 423.24 288.136C423.24 287.943 423.316 287.757 423.45 287.618C423.585 287.48 423.769 287.399 423.962 287.394Z" fill="#2D334A"/>
<path d="M424.976 289.756C425.145 289.76 425.306 289.831 425.424 289.952C425.542 290.074 425.608 290.236 425.608 290.406C425.608 290.575 425.542 290.738 425.424 290.859C425.306 290.981 425.145 291.051 424.976 291.056C424.807 291.051 424.646 290.981 424.528 290.859C424.41 290.738 424.344 290.575 424.344 290.406C424.344 290.236 424.41 290.074 424.528 289.952C424.646 289.831 424.807 289.76 424.976 289.756Z" fill="#FF6584"/>
<path d="M419.107 289.756C419.276 289.76 419.437 289.831 419.555 289.952C419.673 290.074 419.739 290.236 419.739 290.406C419.739 290.575 419.673 290.738 419.555 290.859C419.437 290.981 419.276 291.051 419.107 291.056C418.938 291.051 418.777 290.981 418.659 290.859C418.541 290.738 418.475 290.575 418.475 290.406C418.475 290.236 418.541 290.074 418.659 289.952C418.777 289.831 418.938 289.76 419.107 289.756Z" fill="#FF6584"/>
<path d="M232.695 37.1816C232.531 37.1815 232.373 37.119 232.252 37.0068C232.132 36.8946 232.059 36.741 232.048 36.5769C231.623 30.8 229.034 25.3966 224.799 21.4481C220.564 17.4995 214.995 15.2971 209.207 15.2815C208.514 15.2815 207.787 15.3168 207.044 15.3863C206.92 15.398 206.795 15.3736 206.684 15.3161C206.573 15.2586 206.482 15.1704 206.42 15.0621C203.761 10.4047 199.79 6.63406 195.004 4.22071C190.217 1.80737 184.826 0.858216 179.504 1.4917C174.182 2.12518 169.164 4.31324 165.076 7.78283C160.989 11.2524 158.013 15.8499 156.52 21.0014C156.48 21.1395 156.396 21.2605 156.281 21.3454C156.165 21.4304 156.024 21.4744 155.881 21.4706L155.708 21.4653C155.618 21.4623 155.529 21.4591 155.438 21.4591C151.048 21.4729 146.794 22.9885 143.383 25.7544C139.972 28.5203 137.608 32.3703 136.684 36.6655C136.654 36.8115 136.574 36.9424 136.458 37.0364C136.342 37.1304 136.198 37.1817 136.049 37.1817H92.517C92.4315 37.1819 92.3468 37.1653 92.2678 37.1328C92.1887 37.1002 92.1168 37.0523 92.0563 36.9919C91.9957 36.9315 91.9477 36.8597 91.9149 36.7807C91.8821 36.7017 91.8652 36.617 91.8652 36.5314C91.8652 36.4458 91.8821 36.3611 91.9149 36.2821C91.9477 36.203 91.9957 36.1313 92.0563 36.0709C92.1168 36.0104 92.1887 35.9626 92.2678 35.93C92.3468 35.8975 92.4315 35.8808 92.517 35.8811H135.528C136.611 31.4135 139.158 27.4375 142.763 24.5878C146.367 21.738 150.822 20.1787 155.415 20.1586C157.051 14.8647 160.187 10.16 164.444 6.61614C168.7 3.07223 173.893 0.841622 179.392 0.195298C184.891 -0.451026 190.459 0.514757 195.42 2.97531C200.381 5.43587 204.521 9.28529 207.338 14.0559C207.977 14.0061 208.604 13.981 209.207 13.981C215.324 13.9976 221.209 16.3251 225.684 20.4979C230.159 24.6707 232.895 30.3809 233.344 36.4858C233.35 36.571 233.339 36.6566 233.312 36.7376C233.285 36.8186 233.242 36.8935 233.186 36.9579C233.13 37.0224 233.062 37.0752 232.986 37.1133C232.91 37.1514 232.826 37.1741 232.741 37.1801C232.726 37.1812 232.71 37.1816 232.695 37.1816Z" fill="#CBCBCB"/>
<path d="M224.965 45.5193H118.402C118.229 45.5193 118.064 45.4508 117.942 45.3288C117.82 45.2069 117.752 45.0415 117.752 44.869C117.752 44.6966 117.82 44.5312 117.942 44.4092C118.064 44.2873 118.229 44.2188 118.402 44.2188H224.965C225.137 44.2187 225.303 44.2873 225.425 44.4092C225.546 44.5312 225.615 44.6966 225.615 44.869C225.615 45.0415 225.546 45.2069 225.425 45.3288C225.303 45.4508 225.137 45.5193 224.965 45.5193Z" fill="#CBCBCB"/>
<path d="M144.391 54.9483H108.654C108.481 54.9483 108.316 54.8798 108.194 54.7579C108.072 54.6359 108.004 54.4705 108.004 54.298C108.004 54.1256 108.072 53.9602 108.194 53.8382C108.316 53.7163 108.481 53.6478 108.654 53.6478H144.391C144.564 53.6478 144.729 53.7163 144.851 53.8382C144.973 53.9602 145.041 54.1256 145.041 54.298C145.041 54.4705 144.973 54.6359 144.851 54.7579C144.729 54.8798 144.564 54.9483 144.391 54.9483Z" fill="#CBCBCB"/>
<path d="M574.058 85.7117C573.894 85.7116 573.736 85.6491 573.616 85.5369C573.496 85.4247 573.422 85.2711 573.411 85.107C572.986 79.33 570.397 73.9267 566.162 69.9781C561.927 66.0296 556.358 63.8272 550.57 63.8116C549.878 63.8116 549.15 63.8468 548.407 63.9164C548.283 63.9281 548.158 63.9037 548.047 63.8462C547.937 63.7887 547.845 63.7005 547.783 63.5922C545.124 58.9348 541.154 55.1642 536.367 52.7508C531.58 50.3375 526.19 49.3883 520.867 50.0218C515.545 50.6553 510.527 52.8433 506.44 56.3129C502.352 59.7825 499.376 64.38 497.883 69.5315C497.844 69.6696 497.76 69.7906 497.644 69.8755C497.528 69.9604 497.388 70.0045 497.244 70.0007L497.071 69.9954C496.982 69.9924 496.892 69.9892 496.801 69.9892C492.411 70.003 488.157 71.5185 484.746 74.2845C481.335 77.0504 478.972 80.9004 478.048 85.1956C478.017 85.3416 477.937 85.4725 477.821 85.5665C477.705 85.6605 477.561 85.7118 477.412 85.7118H433.88C433.795 85.712 433.71 85.6954 433.631 85.6628C433.552 85.6303 433.48 85.5824 433.42 85.522C433.359 85.4616 433.311 85.3898 433.278 85.3108C433.245 85.2318 433.229 85.147 433.229 85.0615C433.229 84.9759 433.245 84.8912 433.278 84.8122C433.311 84.7331 433.359 84.6613 433.42 84.6009C433.48 84.5405 433.552 84.4927 433.631 84.4601C433.71 84.4276 433.795 84.4109 433.88 84.4112H476.892C477.975 79.9436 480.521 75.9676 484.126 73.1179C487.731 70.2681 492.185 68.7088 496.779 68.6887C498.414 63.3948 501.55 58.6901 505.807 55.1462C510.063 51.6023 515.256 49.3717 520.755 48.7254C526.254 48.0791 531.823 49.0448 536.784 51.5054C541.745 53.9659 545.885 57.8154 548.701 62.586C549.34 62.5362 549.967 62.5111 550.57 62.5111C556.687 62.5277 562.572 64.8552 567.047 69.028C571.523 73.2008 574.259 78.911 574.707 85.0159C574.713 85.1011 574.702 85.1867 574.675 85.2677C574.648 85.3487 574.606 85.4235 574.55 85.488C574.494 85.5525 574.426 85.6053 574.349 85.6434C574.273 85.6815 574.19 85.7042 574.105 85.7102C574.089 85.7112 574.074 85.7117 574.058 85.7117Z" fill="#CBCBCB"/>
<path d="M566.328 94.0495H459.765C459.593 94.0495 459.427 93.9809 459.306 93.859C459.184 93.737 459.115 93.5716 459.115 93.3992C459.115 93.2267 459.184 93.0613 459.306 92.9393C459.427 92.8174 459.593 92.7489 459.765 92.7489H566.328C566.501 92.7489 566.666 92.8174 566.788 92.9393C566.91 93.0613 566.978 93.2267 566.978 93.3992C566.978 93.5716 566.91 93.737 566.788 93.859C566.666 93.9809 566.501 94.0495 566.328 94.0495Z" fill="#CBCBCB"/>
<path d="M485.757 103.478H450.019C449.847 103.478 449.681 103.41 449.559 103.288C449.438 103.166 449.369 103.001 449.369 102.828C449.369 102.656 449.438 102.49 449.559 102.368C449.681 102.246 449.847 102.178 450.019 102.178H485.757C485.929 102.178 486.094 102.246 486.216 102.368C486.338 102.49 486.406 102.656 486.406 102.828C486.406 103.001 486.338 103.166 486.216 103.288C486.094 103.41 485.929 103.478 485.757 103.478Z" fill="#CBCBCB"/>
<path d="M114.532 326.525C122.767 328.891 122.865 317.244 124.175 312.003C119.52 315.175 111.672 319.697 114.562 326.384" fill="#FFD803"/>
<path d="M114.985 335.562C113.904 329.439 113.835 321.683 119.839 318.065C120.126 317.883 120.39 318.338 120.104 318.519C114.308 322.027 114.48 329.52 115.493 335.422C115.509 335.488 115.498 335.558 115.463 335.617C115.429 335.676 115.372 335.719 115.307 335.737C115.241 335.755 115.171 335.747 115.111 335.714C115.051 335.681 115.006 335.627 114.985 335.562Z" fill="#2D334A"/>
<path d="M117.65 331.23C121.419 336.293 126.667 329.514 129.77 327.029C125.631 326.809 119.018 325.955 117.732 331.161" fill="#FFD803"/>
<path d="M113.939 337.114C116.069 333.033 119.471 328.417 124.657 329C124.994 329.029 124.91 329.548 124.573 329.52C119.647 329.009 116.442 333.443 114.42 337.328C114.254 337.62 113.772 337.409 113.939 337.114Z" fill="#2D334A"/>
<path d="M532.952 326.525C524.716 328.891 524.619 317.244 523.309 312.003C527.963 315.175 535.812 319.697 532.921 326.384" fill="#FFD803"/>
<path d="M532.498 335.562C533.579 329.439 533.648 321.683 527.644 318.065C527.357 317.883 527.093 318.338 527.379 318.519C533.175 322.027 533.003 329.52 531.99 335.422C531.974 335.488 531.985 335.558 532.02 335.617C532.054 335.676 532.11 335.719 532.176 335.737C532.242 335.755 532.312 335.747 532.372 335.714C532.432 335.681 532.477 335.627 532.498 335.562Z" fill="#2D334A"/>
<path d="M529.833 331.23C526.064 336.293 520.816 329.514 517.713 327.029C521.852 326.809 528.465 325.955 529.751 331.161" fill="#FFD803"/>
<path d="M533.546 337.114C531.416 333.033 528.014 328.417 522.828 329C522.491 329.029 522.575 329.548 522.911 329.52C527.837 329.009 531.043 333.443 533.065 337.328C533.23 337.62 533.713 337.409 533.546 337.114Z" fill="#2D334A"/>
<path d="M567.58 318.393C553.224 322.517 553.054 302.214 550.77 293.078C558.884 298.607 572.565 306.49 567.527 318.145" fill="#FFD803"/>
<path d="M566.788 334.145C568.673 323.471 568.793 309.952 558.327 303.644C557.827 303.328 557.367 304.121 557.865 304.436C567.969 310.552 567.669 323.612 565.903 333.901C565.875 334.016 565.894 334.138 565.954 334.241C566.015 334.343 566.113 334.418 566.228 334.45C566.342 334.481 566.465 334.467 566.569 334.41C566.674 334.353 566.752 334.258 566.787 334.144L566.788 334.145Z" fill="#2D334A"/>
<path d="M562.143 326.594C555.573 335.419 546.425 323.602 541.016 319.271C548.231 318.887 559.758 317.398 562.001 326.473" fill="#FFD803"/>
<path d="M568.613 336.85C564.899 329.736 558.969 321.69 549.929 322.706C549.341 322.757 549.488 323.663 550.074 323.612C558.661 322.723 564.249 330.452 567.775 337.224C568.062 337.734 568.903 337.366 568.613 336.85Z" fill="#2D334A"/>
<path d="M50.9805 335.318H53.4051L54.5587 325.958H50.9805V335.318Z" fill="#FFB6B6"/>
<path d="M50.3613 334.525L55.1366 334.525C55.9436 334.525 56.7178 334.846 57.2885 335.417C57.8592 335.988 58.1798 336.763 58.1799 337.57V337.669L50.3615 337.67L50.3613 334.525Z" fill="#272343"/>
<path d="M62.4518 335.318H64.8765L66.0301 325.958H62.4512L62.4518 335.318Z" fill="#FFB6B6"/>
<path d="M61.832 334.525L66.6072 334.525C67.4143 334.525 68.1885 334.846 68.7592 335.417C69.3299 335.988 69.6505 336.763 69.6506 337.57V337.669L61.8322 337.67L61.832 334.525Z" fill="#272343"/>
<path d="M66.9762 292.527C67.1812 292.294 67.3324 292.018 67.4194 291.72C67.5063 291.421 67.5268 291.107 67.4795 290.8C67.4321 290.493 67.318 290.2 67.1452 289.941C66.9724 289.683 66.7451 289.466 66.4793 289.305L62.5333 270.345L58.2344 272.04L63.4649 290.144C63.2245 290.609 63.1628 291.146 63.2915 291.653C63.4201 292.16 63.7302 292.603 64.163 292.896C64.5957 293.19 65.1211 293.315 65.6396 293.247C66.1581 293.179 66.6337 292.923 66.9762 292.527Z" fill="#E0B390"/>
<path d="M48.3795 288.876L46.5922 290.692C46.5922 290.692 44.6761 297.719 48.3428 306.386L50.7953 331.513L55.2077 331.846L56.525 302.612L62.6028 312.316L61.5412 331.742L66.4187 331.63L68.6231 310.104L62.6028 287.642L48.3795 288.876Z" fill="#272343"/>
<path d="M54.6295 291.322C51.9383 291.303 49.2505 291.126 46.5801 290.79L46.4727 290.776L49.1361 279.061L48.219 263.988L56.8793 263.691C57.6633 263.663 58.4302 263.925 59.0326 264.428C59.6351 264.931 60.0308 265.639 60.1437 266.416L61.9162 278.441L63.5558 289.11L63.5338 289.142C62.3556 290.871 58.4161 291.322 54.6295 291.322Z" fill="#FFD803"/>
<path d="M56.0898 266.184L57.8495 263.977C57.8495 263.977 60.9342 261.866 61.9105 266.389C62.8868 270.913 64.7007 278.258 64.7007 278.258L58.6688 278.746L56.0898 266.184Z" fill="#FFD803"/>
<path d="M39.4168 292.725C39.2118 292.492 39.0606 292.216 38.9736 291.918C38.8867 291.619 38.8662 291.305 38.9135 290.998C38.9609 290.691 39.075 290.398 39.2478 290.139C39.4206 289.881 39.6479 289.664 39.9137 289.503L43.8597 270.543L48.1586 272.238L42.9281 290.342C43.1685 290.807 43.2302 291.344 43.1015 291.851C42.9729 292.358 42.6628 292.801 42.23 293.094C41.7972 293.388 41.2718 293.513 40.7534 293.445C40.2349 293.377 39.7593 293.121 39.4168 292.725Z" fill="#E0B390"/>
<path d="M50.3023 266.382L48.5426 264.175C48.5426 264.175 45.4579 262.063 44.4816 266.587C43.5053 271.111 41.6914 278.456 41.6914 278.456L47.7233 278.944L50.3023 266.382Z" fill="#FFD803"/>
<path d="M57.7187 261.487H46.2474C46.0115 261.487 45.7853 261.393 45.6184 261.226C45.4515 261.059 45.3577 260.832 45.3574 260.596V255.648C45.3574 253.889 46.0555 252.203 47.298 250.959C48.5406 249.716 50.2258 249.017 51.9831 249.017C53.7403 249.017 55.4256 249.716 56.6681 250.959C57.9107 252.203 58.6087 253.889 58.6087 255.648V260.596C58.6085 260.832 58.5146 261.059 58.3478 261.226C58.1809 261.393 57.9547 261.487 57.7187 261.487Z" fill="#272343"/>
<path d="M53.2483 261.189C55.9312 261.189 58.106 259.012 58.106 256.327C58.106 253.643 55.9312 251.466 53.2483 251.466C50.5655 251.466 48.3906 253.643 48.3906 256.327C48.3906 259.012 50.5655 261.189 53.2483 261.189Z" fill="#E0B390"/>
<path d="M60.1744 256.143H53.16L53.088 255.135L52.7284 256.143H51.6483L51.5058 254.145L50.793 256.143H48.7031V256.044C48.7047 254.653 49.2574 253.32 50.2399 252.337C51.2225 251.353 52.5547 250.8 53.9443 250.799H54.9332C56.3228 250.8 57.655 251.353 58.6375 252.337C59.6201 253.32 60.1728 254.653 60.1744 256.044V256.143Z" fill="#272343"/>
<path d="M53.1043 262.411C53.0515 262.411 52.9988 262.406 52.9468 262.397L47.8105 261.49V252.995H53.4646L53.3246 253.158C51.377 255.431 52.8443 259.117 53.8923 261.112C53.9695 261.258 54.0039 261.423 53.9916 261.588C53.9793 261.752 53.9207 261.91 53.8226 262.043C53.7404 262.157 53.6325 262.25 53.5076 262.314C53.3828 262.377 53.2445 262.411 53.1043 262.411Z" fill="#272343"/>
</g>
<defs>
<clipPath id="clip0_689_4416">
<rect width="580" height="338" fill="white"/>
</clipPath>
</defs>
</svg>
