<svg xmlns="http://www.w3.org/2000/svg" version="1.1" xmlns:xlink="http://www.w3.org/1999/xlink" xmlns:svgjs="http://svgjs.dev/svgjs" width="440" height="1000" preserveAspectRatio="none" viewBox="0 0 440 1000"><g mask="url(&quot;#SvgjsMask1156&quot;)" fill="none"><rect width="440" height="1000" x="0" y="0" fill="rgba(255, 255, 255, 1)"></rect><path d="M133.63421666167542 588.4282580487944L121.566710584961 473.6136071813879 6.752059717554516 485.68111325810236 18.81956579426894 600.4957641255088z" fill="rgba(167, 214, 219, 0.2)" class="triangle-float2"></path><path d="M258.42 738.26 a105.73 105.73 0 1 0 211.46 0 a105.73 105.73 0 1 0 -211.46 0z" fill="rgba(167, 214, 219, 0.2)" class="triangle-float1"></path><path d="M235.688,942.434C250.193,942.303,259.518,928.48,266.132,915.569C272.043,904.03,273.706,890.978,268.016,879.328C261.502,865.992,250.512,853.966,235.688,853.236C219.8,852.454,204.441,861.617,197.333,875.848C190.808,888.912,196.988,903.473,204.277,916.127C211.583,928.811,221.051,942.566,235.688,942.434" fill="rgba(167, 214, 219, 0.2)" class="triangle-float1"></path><path d="M117.24374221312377 1043.6627740108927L115.83909972434886 963.190859724043 35.36718543749919 964.5955022128179 36.7718279262741 1045.0674164996676z" fill="rgba(167, 214, 219, 0.2)" class="triangle-float2"></path><path d="M-45.8 513.22 a120.61 120.61 0 1 0 241.22 0 a120.61 120.61 0 1 0 -241.22 0z" fill="rgba(167, 214, 219, 0.2)" class="triangle-float2"></path><path d="M172.39900536488926 168.29324201509593L92.27703548164885 230.89138545227576 154.87517891882868 311.01335533551617 234.9971488020691 248.41521189833634z" fill="rgba(167, 214, 219, 0.2)" class="triangle-float1"></path><path d="M458.144,1140.526C495.753,1139.241,532.399,1124.243,551.551,1091.85C571.026,1058.909,569.546,1017.789,550.244,984.747C531.113,951.998,496.062,932.761,458.144,931.949C418.673,931.104,380.013,947.26,358.948,980.65C336.429,1016.345,330.734,1062.771,352.985,1098.634C374.306,1132.998,417.727,1141.907,458.144,1140.526" fill="rgba(167, 214, 219, 0.2)" class="triangle-float3"></path><path d="M313.728,1037.163C343.855,1038.355,370.335,1018.33,385.014,991.993C399.297,966.367,400.928,934.298,384.673,909.875C369.784,887.504,340.601,884.824,313.728,884.887C287.009,884.95,257.275,887.399,243.356,910.206C229.035,933.672,238.259,962.668,251.587,986.712C265.45,1011.723,285.154,1036.032,313.728,1037.163" fill="rgba(167, 214, 219, 0.2)" class="triangle-float2"></path><path d="M331.563,542.027C357.489,542.63,382.96,529.328,394.692,506.201C405.576,484.747,395.648,460.531,383.414,439.817C371.46,419.575,355.058,400.087,331.563,399.308C306.974,398.493,285.413,414.702,273.398,436.171C261.672,457.124,261.759,482.336,273.322,503.379C285.348,525.265,306.598,541.446,331.563,542.027" fill="rgba(167, 214, 219, 0.2)" class="triangle-float1"></path><path d="M347.774,402.676C381.717,403.606,415.309,387.306,431.321,357.362C446.603,328.784,437.04,294.996,420.14,267.345C404.096,241.094,378.525,221.636,347.774,220.664C315.298,219.637,283.202,234.326,267.023,262.504C250.904,290.578,255.636,324.941,271.796,352.992C287.986,381.095,315.353,401.788,347.774,402.676" fill="rgba(167, 214, 219, 0.2)" class="triangle-float2"></path><path d="M350.09 878.58 a80.4 80.4 0 1 0 160.8 0 a80.4 80.4 0 1 0 -160.8 0z" fill="rgba(167, 214, 219, 0.2)" class="triangle-float2"></path><path d="M71.693,800.485C91.266,801.246,112.871,798.473,123.264,781.869C134.127,764.514,130.006,742.053,119.124,724.71C108.94,708.479,90.846,699.131,71.693,699.677C53.453,700.197,37.817,711.466,28.727,727.288C19.674,743.045,17.43,762.44,26.63,778.112C35.729,793.614,53.732,799.787,71.693,800.485" fill="rgba(167, 214, 219, 0.2)" class="triangle-float3"></path><path d="M405.764,459.854C433.988,459.185,462.733,450.265,477.17,426.004C491.894,401.262,488.816,370.064,473.824,345.483C459.452,321.919,433.355,309.656,405.764,308.925C376.661,308.154,346.901,317.213,331.16,341.704C314.185,368.114,311.485,402.986,328.247,429.532C344.124,454.677,376.034,460.558,405.764,459.854" fill="rgba(167, 214, 219, 0.2)" class="triangle-float2"></path><path d="M239.47 397.35 a105.45 105.45 0 1 0 210.9 0 a105.45 105.45 0 1 0 -210.9 0z" fill="rgba(167, 214, 219, 0.2)" class="triangle-float2"></path><path d="M109.76489852731612 143.221365324081L-13.534932539558753 128.08204970713248-28.674248156507275 251.38188077400736 94.62558291036758 266.5211963909559z" fill="rgba(167, 214, 219, 0.2)" class="triangle-float3"></path></g><defs><mask id="SvgjsMask1156"><rect width="440" height="1000" fill="#ffffff"></rect></mask><style>
                @keyframes float1 {
                    0%{transform: translate(0, 0)}
                    50%{transform: translate(-10px, 0)}
                    100%{transform: translate(0, 0)}
                }

                .triangle-float1 {
                    animation: float1 5s infinite;
                }

                @keyframes float2 {
                    0%{transform: translate(0, 0)}
                    50%{transform: translate(-5px, -5px)}
                    100%{transform: translate(0, 0)}
                }

                .triangle-float2 {
                    animation: float2 4s infinite;
                }

                @keyframes float3 {
                    0%{transform: translate(0, 0)}
                    50%{transform: translate(0, -10px)}
                    100%{transform: translate(0, 0)}
                }

                .triangle-float3 {
                    animation: float3 6s infinite;
                }
            </style></defs></svg>