<svg width="325" height="489" viewBox="0 0 325 489" fill="none" xmlns="http://www.w3.org/2000/svg">
<g clip-path="url(#clip0_379_1101)">
<path d="M186.545 266.592C245.583 266.592 293.443 218.756 293.443 159.747C293.443 100.738 245.583 52.9016 186.545 52.9016C127.507 52.9016 79.647 100.738 79.647 159.747C79.647 218.756 127.507 266.592 186.545 266.592Z" fill="#FFD803"/>
<path d="M179.998 159.514L169.283 171.725V205.855C169.283 205.855 135.296 292.925 151.666 336.347C151.666 336.347 162.949 345.786 163.603 331.312C164.258 316.839 172.443 292.925 172.443 292.925C172.443 292.925 194.479 260.831 193.85 240.693C193.85 240.693 220.68 168.721 207.58 160.027L179.998 159.514Z" fill="#E3F6F5"/>
<path d="M137.173 486.924C136.666 456.106 136.193 425.287 135.764 394.467C135.334 363.661 134.946 332.853 134.608 302.045C134.269 271.242 133.98 240.438 133.746 209.634C133.513 178.826 133.335 148.017 133.22 117.208C133.163 101.8 133.121 86.391 133.096 70.9823C133.08 61.0985 131.986 48.2745 138.568 39.9776C139.989 38.1863 141.768 36.8887 143.81 35.8936C147.682 34.0061 144.292 28.2327 140.43 30.1149C130.423 34.9925 127.476 46.5275 126.665 56.7339C126.158 63.1206 126.397 69.5682 126.409 75.968C126.423 83.8237 126.442 91.6793 126.465 99.535C126.557 130.799 126.715 162.062 126.932 193.325C127.15 224.734 127.427 256.142 127.756 287.549C128.084 318.809 128.463 350.069 128.887 381.327C129.311 412.598 129.779 443.868 130.285 475.138C130.348 479.066 130.412 482.995 130.477 486.924C130.548 491.226 137.244 491.239 137.173 486.924Z" fill="#272343"/>
<path d="M207.58 124.495C207.58 124.495 235.494 232.038 265.356 259.964C265.356 259.964 274.479 321.953 324.809 331.312C324.809 331.312 287.902 287.869 295.847 267.753C305.291 243.84 293.328 102.247 207.701 124.273" fill="#E3F6F5"/>
<path d="M130.394 220.85C134.637 221.78 139.036 220.625 142.518 218.083C146.155 215.429 148.556 211.773 150.262 207.656C152.006 203.446 152.959 198.94 153.969 194.512C155.041 189.81 156.046 185.092 157.157 180.399C161.065 163.905 166.841 146.209 180.796 135.4C188.394 129.515 197.993 126.478 207.58 126.726C210.454 126.801 210.452 122.339 207.58 122.265C198.644 122.034 189.635 124.444 182.028 129.147C174.792 133.621 169.023 140.102 164.66 147.35C154.999 163.397 152.74 182.093 148.093 199.89C146.955 204.25 145.493 208.864 142.395 212.266C139.646 215.283 135.53 217.414 131.581 216.547C130.404 216.289 129.166 216.901 128.835 218.106C128.528 219.222 129.211 220.59 130.394 220.85Z" fill="#272343"/>
<path d="M324.618 332.031C307.883 327.588 294.315 310.253 285.378 281.9C278.663 260.593 276.865 240.33 276.847 240.127C274.523 213.33 266.513 175.741 241.549 148.849C226.664 132.815 212.65 128.172 212.51 128.127L212.967 126.711C213.552 126.9 227.492 131.521 242.639 147.837C256.577 162.851 274.083 191.028 278.33 239.999C278.398 240.8 285.673 320.152 325 330.594L324.618 332.031Z" fill="#272343"/>
<path d="M206.321 3.04061C206.321 3.04061 234.235 110.583 264.097 138.509C264.097 138.509 273.22 200.498 323.55 209.858C323.55 209.858 286.643 166.414 294.588 146.298C304.032 122.385 292.069 -19.2075 206.442 2.81794" fill="#E3F6F5"/>
<path d="M129.135 99.3949C133.377 100.325 137.777 99.1705 141.259 96.6285C144.895 93.9742 147.296 90.3182 149.002 86.2008C150.747 81.9911 151.7 77.4853 152.71 73.0575C153.782 68.3552 154.786 63.6373 155.898 58.944C159.806 42.4499 165.582 24.7542 179.537 13.9453C187.135 8.05984 196.734 5.02359 206.321 5.27152C209.194 5.34583 209.193 0.884143 206.321 0.809871C197.384 0.578765 188.375 2.98927 180.769 7.69219C173.533 12.1661 167.764 18.6476 163.401 25.8952C153.74 41.9419 151.481 60.638 146.834 78.4352C145.695 82.7951 144.233 87.4094 141.135 90.8108C138.387 93.828 134.271 95.9589 130.321 95.0926C129.145 94.8346 127.907 95.446 127.576 96.6507C127.269 97.767 127.952 99.1355 129.135 99.3949Z" fill="#272343"/>
<path d="M323.359 210.576C306.624 206.133 293.055 188.798 284.119 160.445C277.404 139.139 275.605 118.875 275.588 118.673C273.264 91.8752 265.254 54.286 240.289 27.3944C225.404 11.3607 211.391 6.71719 211.251 6.67216L211.707 5.25684C212.293 5.44528 226.233 10.0663 241.38 26.3829C255.318 41.3966 272.824 69.5731 277.07 118.545C277.139 119.346 284.414 198.698 323.741 209.139L323.359 210.576Z" fill="#272343"/>
<path d="M54.827 239.028C54.827 239.028 26.9128 346.57 -2.94868 374.497C-2.94868 374.497 -12.0718 436.485 -62.4019 445.845C-62.4019 445.845 -25.4954 402.401 -33.4398 382.286C-42.8839 358.372 -30.9213 216.78 54.7057 238.805" fill="#E3F6F5"/>
<path d="M130.827 331.08C127.378 331.836 123.683 330.285 121.03 327.824C118.057 325.065 116.365 321.267 115.176 317.457C113.808 313.076 112.888 308.547 111.891 304.071C110.817 299.25 109.766 294.423 108.547 289.637C104.307 272.979 97.3974 255.873 83.0093 245.443C74.9165 239.576 64.8068 236.539 54.8274 236.797C51.9603 236.871 51.9491 241.333 54.8274 241.259C63.4515 241.036 71.9901 243.461 79.1939 248.214C85.9723 252.686 91.1774 259.164 95.0917 266.207C99.4573 274.062 102.185 282.654 104.373 291.335C105.565 296.068 106.601 300.838 107.663 305.602C108.67 310.114 109.594 314.688 111.014 319.094C112.505 323.719 114.732 328.373 118.525 331.553C122.294 334.713 127.106 336.459 132.014 335.382C133.191 335.124 133.88 333.756 133.572 332.638C133.239 331.423 132.008 330.821 130.827 331.08Z" fill="#272343"/>
<path d="M-62.2108 446.563L-62.5928 445.126C-23.2654 434.685 -15.9911 355.333 -15.9223 354.533C-13.5785 327.502 -5.48392 289.571 19.768 262.37C34.9153 246.054 48.8548 241.433 49.4408 241.244L49.8974 242.659C49.757 242.705 35.6774 247.387 20.7894 263.457C7.0387 278.298 -10.2351 306.169 -14.4398 354.661C-14.4572 354.862 -16.256 375.126 -22.9712 396.432C-31.9072 424.786 -45.4761 442.121 -62.2108 446.563Z" fill="#272343"/>
<path d="M50.4198 25.066C50.4198 25.066 22.5056 132.608 -7.35591 160.535C-7.35591 160.535 -16.4791 222.523 -66.8091 231.883C-66.8091 231.883 -29.9026 188.439 -37.847 168.324C-47.2911 144.41 -35.3285 2.81785 50.2985 24.8433" fill="#E3F6F5"/>
<path d="M126.42 117.118C122.97 117.874 119.276 116.323 116.623 113.862C113.65 111.103 111.957 107.305 110.768 103.495C109.401 99.1143 108.481 94.585 107.484 90.1093C106.41 85.2885 105.359 80.4615 104.14 75.6746C99.8995 59.0172 92.9902 41.9115 78.6021 31.4807C70.5092 25.6137 60.3995 22.5772 50.4202 22.8353C47.553 22.9094 47.5419 27.3713 50.4202 27.2969C59.0443 27.0739 67.5829 29.4995 74.7867 34.2519C81.5651 38.7237 86.7702 45.2019 90.6845 52.2447C95.0501 60.0996 97.7781 68.6925 99.9653 77.3731C101.158 82.1062 102.194 86.8765 103.256 91.6399C104.262 96.1525 105.187 100.727 106.607 105.132C108.098 109.757 110.324 114.411 114.118 117.591C117.886 120.751 122.698 122.497 127.606 121.42C128.784 121.162 129.473 119.794 129.165 118.676C128.831 117.462 127.601 116.859 126.42 117.118Z" fill="#272343"/>
<path d="M-66.618 232.602L-67 231.164C-27.6654 220.721 -20.3982 141.371 -20.3293 140.571C-17.9855 113.54 -9.89096 75.6095 15.361 48.4082C30.5082 32.0917 44.4478 27.4707 45.0337 27.2822L45.4904 28.6976C45.35 28.7429 31.2704 33.425 16.3823 49.4946C2.63165 64.3363 -14.6422 92.2071 -18.8468 140.699C-18.8643 140.9 -20.663 161.164 -27.3782 182.47C-36.3145 210.824 -49.8833 228.159 -66.618 232.602Z" fill="#272343"/>
<path d="M130.987 53.2792C130.987 53.2792 154.788 45.6026 158.579 71.7225C162.369 97.8423 175.159 137.413 175.159 137.413C175.159 137.413 166.754 158.765 169.284 171.725C169.284 171.725 195.496 174.384 207.58 160.027L190.049 127.611C190.049 127.611 176.857 39.1436 135.929 37.9719L130.987 53.2792Z" fill="#272343"/>
</g>
<defs>
<clipPath id="clip0_379_1101">
<rect width="392" height="488" fill="white" transform="translate(-67 0.5)"/>
</clipPath>
</defs>
</svg>
